<svg width="77" height="32" viewBox="0 0 77 32" fill="none" xmlns="http://www.w3.org/2000/svg">
<rect width="77" height="32" rx="6" fill="#254BDD"/>
<path d="M42.446 20.096C41.806 20.096 41.214 19.992 40.67 19.784C40.134 19.568 39.666 19.268 39.266 18.884C38.874 18.492 38.566 18.036 38.342 17.516C38.118 16.996 38.006 16.424 38.006 15.8C38.006 15.176 38.118 14.604 38.342 14.084C38.566 13.564 38.878 13.112 39.278 12.728C39.678 12.336 40.146 12.036 40.682 11.828C41.226 11.612 41.818 11.504 42.458 11.504C43.106 11.504 43.702 11.616 44.246 11.84C44.798 12.056 45.266 12.38 45.65 12.812L44.87 13.568C44.55 13.232 44.19 12.984 43.79 12.824C43.39 12.656 42.962 12.572 42.506 12.572C42.034 12.572 41.594 12.652 41.186 12.812C40.786 12.972 40.438 13.196 40.142 13.484C39.846 13.772 39.614 14.116 39.446 14.516C39.286 14.908 39.206 15.336 39.206 15.8C39.206 16.264 39.286 16.696 39.446 17.096C39.614 17.488 39.846 17.828 40.142 18.116C40.438 18.404 40.786 18.628 41.186 18.788C41.594 18.948 42.034 19.028 42.506 19.028C42.962 19.028 43.39 18.948 43.79 18.788C44.19 18.62 44.55 18.364 44.87 18.02L45.65 18.776C45.266 19.208 44.798 19.536 44.246 19.76C43.702 19.984 43.102 20.096 42.446 20.096ZM49.7982 20.096C49.1582 20.096 48.5462 20 47.9622 19.808C47.3782 19.608 46.9182 19.352 46.5822 19.04L47.0262 18.104C47.3462 18.384 47.7542 18.616 48.2502 18.8C48.7462 18.984 49.2622 19.076 49.7982 19.076C50.2862 19.076 50.6822 19.02 50.9862 18.908C51.2902 18.796 51.5142 18.644 51.6582 18.452C51.8022 18.252 51.8742 18.028 51.8742 17.78C51.8742 17.492 51.7782 17.26 51.5862 17.084C51.4022 16.908 51.1582 16.768 50.8542 16.664C50.5582 16.552 50.2302 16.456 49.8702 16.376C49.5102 16.296 49.1462 16.204 48.7782 16.1C48.4182 15.988 48.0862 15.848 47.7822 15.68C47.4862 15.512 47.2462 15.288 47.0622 15.008C46.8782 14.72 46.7862 14.352 46.7862 13.904C46.7862 13.472 46.8982 13.076 47.1222 12.716C47.3542 12.348 47.7062 12.056 48.1782 11.84C48.6582 11.616 49.2662 11.504 50.0022 11.504C50.4902 11.504 50.9742 11.568 51.4542 11.696C51.9342 11.824 52.3502 12.008 52.7022 12.248L52.3062 13.208C51.9462 12.968 51.5662 12.796 51.1662 12.692C50.7662 12.58 50.3782 12.524 50.0022 12.524C49.5302 12.524 49.1422 12.584 48.8382 12.704C48.5342 12.824 48.3102 12.984 48.1662 13.184C48.0302 13.384 47.9622 13.608 47.9622 13.856C47.9622 14.152 48.0542 14.388 48.2382 14.564C48.4302 14.74 48.6742 14.88 48.9702 14.984C49.2742 15.088 49.6062 15.184 49.9662 15.272C50.3262 15.352 50.6862 15.444 51.0462 15.548C51.4142 15.652 51.7462 15.788 52.0422 15.956C52.3462 16.124 52.5902 16.348 52.7742 16.628C52.9582 16.908 53.0502 17.268 53.0502 17.708C53.0502 18.132 52.9342 18.528 52.7022 18.896C52.4702 19.256 52.1102 19.548 51.6222 19.772C51.1422 19.988 50.5342 20.096 49.7982 20.096ZM57.2513 20.096C56.6113 20.096 55.9993 20 55.4153 19.808C54.8313 19.608 54.3713 19.352 54.0353 19.04L54.4793 18.104C54.7993 18.384 55.2073 18.616 55.7033 18.8C56.1993 18.984 56.7153 19.076 57.2513 19.076C57.7393 19.076 58.1353 19.02 58.4393 18.908C58.7433 18.796 58.9673 18.644 59.1113 18.452C59.2553 18.252 59.3273 18.028 59.3273 17.78C59.3273 17.492 59.2313 17.26 59.0393 17.084C58.8553 16.908 58.6113 16.768 58.3073 16.664C58.0113 16.552 57.6833 16.456 57.3233 16.376C56.9633 16.296 56.5993 16.204 56.2313 16.1C55.8713 15.988 55.5393 15.848 55.2353 15.68C54.9393 15.512 54.6993 15.288 54.5153 15.008C54.3313 14.72 54.2393 14.352 54.2393 13.904C54.2393 13.472 54.3513 13.076 54.5753 12.716C54.8073 12.348 55.1593 12.056 55.6313 11.84C56.1113 11.616 56.7193 11.504 57.4553 11.504C57.9433 11.504 58.4273 11.568 58.9073 11.696C59.3873 11.824 59.8033 12.008 60.1553 12.248L59.7593 13.208C59.3993 12.968 59.0193 12.796 58.6193 12.692C58.2193 12.58 57.8313 12.524 57.4553 12.524C56.9833 12.524 56.5953 12.584 56.2913 12.704C55.9873 12.824 55.7633 12.984 55.6193 13.184C55.4833 13.384 55.4153 13.608 55.4153 13.856C55.4153 14.152 55.5073 14.388 55.6913 14.564C55.8833 14.74 56.1273 14.88 56.4233 14.984C56.7273 15.088 57.0593 15.184 57.4193 15.272C57.7793 15.352 58.1393 15.444 58.4993 15.548C58.8673 15.652 59.1993 15.788 59.4953 15.956C59.7993 16.124 60.0433 16.348 60.2273 16.628C60.4113 16.908 60.5033 17.268 60.5033 17.708C60.5033 18.132 60.3873 18.528 60.1553 18.896C59.9233 19.256 59.5633 19.548 59.0753 19.772C58.5953 19.988 57.9873 20.096 57.2513 20.096Z" fill="white"/>
<path d="M16 8L17.2464 22.1357L22.8571 24L28.4679 22.1357L29.7143 8H16ZM27.1821 10.8571L27.0107 12.5464L22.8929 14.3071L22.8821 14.3107H26.8643L26.4071 19.5464L22.9 20.5714L19.3714 19.5286L19.1429 16.8893H20.8893L21.0036 18.2571L22.8821 18.7321L24.8357 18.1821L24.9679 15.9821L19.0286 15.9643V15.9607L19.0214 15.9643L18.8929 14.3107L22.8964 12.6429L23.1286 12.5464H18.7393L18.5321 10.8571H27.1821Z" fill="white"/>
</svg>
