<svg width="100" height="32" viewBox="0 0 100 32" fill="none" xmlns="http://www.w3.org/2000/svg">
<rect width="100" height="32" rx="6" fill="#4A61FC"/>
<path d="M40 20V11.6H43.54C44.436 11.6 45.224 11.776 45.904 12.128C46.592 12.48 47.124 12.972 47.5 13.604C47.884 14.236 48.076 14.968 48.076 15.8C48.076 16.632 47.884 17.364 47.5 17.996C47.124 18.628 46.592 19.12 45.904 19.472C45.224 19.824 44.436 20 43.54 20H40ZM41.2 18.956H43.468C44.164 18.956 44.764 18.824 45.268 18.56C45.78 18.296 46.176 17.928 46.456 17.456C46.736 16.976 46.876 16.424 46.876 15.8C46.876 15.168 46.736 14.616 46.456 14.144C46.176 13.672 45.78 13.304 45.268 13.04C44.764 12.776 44.164 12.644 43.468 12.644H41.2V18.956ZM49.7461 20V13.64H50.8981V20H49.7461ZM50.3221 12.416C50.0981 12.416 49.9101 12.344 49.7581 12.2C49.6141 12.056 49.5421 11.88 49.5421 11.672C49.5421 11.456 49.6141 11.276 49.7581 11.132C49.9101 10.988 50.0981 10.916 50.3221 10.916C50.5461 10.916 50.7301 10.988 50.8741 11.132C51.0261 11.268 51.1021 11.44 51.1021 11.648C51.1021 11.864 51.0301 12.048 50.8861 12.2C50.7421 12.344 50.5541 12.416 50.3221 12.416ZM54.9216 20.072C54.3936 20.072 53.8896 20 53.4096 19.856C52.9376 19.712 52.5656 19.536 52.2936 19.328L52.7736 18.416C53.0456 18.6 53.3816 18.756 53.7816 18.884C54.1816 19.012 54.5896 19.076 55.0056 19.076C55.5416 19.076 55.9256 19 56.1576 18.848C56.3976 18.696 56.5176 18.484 56.5176 18.212C56.5176 18.012 56.4456 17.856 56.3016 17.744C56.1576 17.632 55.9656 17.548 55.7256 17.492C55.4936 17.436 55.2336 17.388 54.9456 17.348C54.6576 17.3 54.3696 17.244 54.0816 17.18C53.7936 17.108 53.5296 17.012 53.2896 16.892C53.0496 16.764 52.8576 16.592 52.7136 16.376C52.5696 16.152 52.4976 15.856 52.4976 15.488C52.4976 15.104 52.6056 14.768 52.8216 14.48C53.0376 14.192 53.3416 13.972 53.7336 13.82C54.1336 13.66 54.6056 13.58 55.1496 13.58C55.5656 13.58 55.9856 13.632 56.4096 13.736C56.8416 13.832 57.1936 13.972 57.4656 14.156L56.9736 15.068C56.6856 14.876 56.3856 14.744 56.0736 14.672C55.7616 14.6 55.4496 14.564 55.1376 14.564C54.6336 14.564 54.2576 14.648 54.0096 14.816C53.7616 14.976 53.6376 15.184 53.6376 15.44C53.6376 15.656 53.7096 15.824 53.8536 15.944C54.0056 16.056 54.1976 16.144 54.4296 16.208C54.6696 16.272 54.9336 16.328 55.2216 16.376C55.5096 16.416 55.7976 16.472 56.0856 16.544C56.3736 16.608 56.6336 16.7 56.8656 16.82C57.1056 16.94 57.2976 17.108 57.4416 17.324C57.5936 17.54 57.6696 17.828 57.6696 18.188C57.6696 18.572 57.5576 18.904 57.3336 19.184C57.1096 19.464 56.7936 19.684 56.3856 19.844C55.9776 19.996 55.4896 20.072 54.9216 20.072ZM61.8813 20.072C61.2333 20.072 60.6533 19.932 60.1413 19.652C59.6373 19.372 59.2413 18.988 58.9533 18.5C58.6653 18.012 58.5213 17.452 58.5213 16.82C58.5213 16.188 58.6653 15.628 58.9533 15.14C59.2413 14.652 59.6373 14.272 60.1413 14C60.6533 13.72 61.2333 13.58 61.8813 13.58C62.4573 13.58 62.9693 13.696 63.4173 13.928C63.8733 14.152 64.2253 14.488 64.4733 14.936L63.5973 15.5C63.3893 15.188 63.1333 14.96 62.8293 14.816C62.5333 14.664 62.2133 14.588 61.8693 14.588C61.4533 14.588 61.0813 14.68 60.7533 14.864C60.4253 15.048 60.1653 15.308 59.9733 15.644C59.7813 15.972 59.6853 16.364 59.6853 16.82C59.6853 17.276 59.7813 17.672 59.9733 18.008C60.1653 18.344 60.4253 18.604 60.7533 18.788C61.0813 18.972 61.4533 19.064 61.8693 19.064C62.2133 19.064 62.5333 18.992 62.8293 18.848C63.1333 18.696 63.3893 18.464 63.5973 18.152L64.4733 18.704C64.2253 19.144 63.8733 19.484 63.4173 19.724C62.9693 19.956 62.4573 20.072 61.8813 20.072ZM68.5951 20.072C67.9551 20.072 67.3871 19.932 66.8911 19.652C66.3951 19.372 66.0031 18.988 65.7151 18.5C65.4271 18.004 65.2831 17.444 65.2831 16.82C65.2831 16.188 65.4271 15.628 65.7151 15.14C66.0031 14.652 66.3951 14.272 66.8911 14C67.3871 13.72 67.9551 13.58 68.5951 13.58C69.2271 13.58 69.7911 13.72 70.2871 14C70.7911 14.272 71.1831 14.652 71.4631 15.14C71.7511 15.62 71.8951 16.18 71.8951 16.82C71.8951 17.452 71.7511 18.012 71.4631 18.5C71.1831 18.988 70.7911 19.372 70.2871 19.652C69.7911 19.932 69.2271 20.072 68.5951 20.072ZM68.5951 19.064C69.0031 19.064 69.3671 18.972 69.6871 18.788C70.0151 18.604 70.2711 18.344 70.4551 18.008C70.6391 17.664 70.7311 17.268 70.7311 16.82C70.7311 16.364 70.6391 15.972 70.4551 15.644C70.2711 15.308 70.0151 15.048 69.6871 14.864C69.3671 14.68 69.0031 14.588 68.5951 14.588C68.1871 14.588 67.8231 14.68 67.5031 14.864C67.1831 15.048 66.9271 15.308 66.7351 15.644C66.5431 15.972 66.4471 16.364 66.4471 16.82C66.4471 17.268 66.5431 17.664 66.7351 18.008C66.9271 18.344 67.1831 18.604 67.5031 18.788C67.8231 18.972 68.1871 19.064 68.5951 19.064ZM73.4883 20V13.64H74.5923V15.368L74.4843 14.936C74.6603 14.496 74.9563 14.16 75.3723 13.928C75.7883 13.696 76.3003 13.58 76.9083 13.58V14.696C76.8603 14.688 76.8123 14.684 76.7643 14.684C76.7243 14.684 76.6843 14.684 76.6443 14.684C76.0283 14.684 75.5403 14.868 75.1803 15.236C74.8203 15.604 74.6403 16.136 74.6403 16.832V20H73.4883ZM80.8975 20.072C80.2815 20.072 79.7295 19.936 79.2415 19.664C78.7615 19.392 78.3815 19.012 78.1015 18.524C77.8215 18.036 77.6815 17.468 77.6815 16.82C77.6815 16.172 77.8215 15.608 78.1015 15.128C78.3815 14.64 78.7615 14.26 79.2415 13.988C79.7295 13.716 80.2815 13.58 80.8975 13.58C81.4335 13.58 81.9175 13.7 82.3495 13.94C82.7815 14.18 83.1255 14.54 83.3815 15.02C83.6455 15.5 83.7775 16.1 83.7775 16.82C83.7775 17.54 83.6495 18.14 83.3935 18.62C83.1455 19.1 82.8055 19.464 82.3735 19.712C81.9415 19.952 81.4495 20.072 80.8975 20.072ZM80.9935 19.064C81.3935 19.064 81.7535 18.972 82.0735 18.788C82.4015 18.604 82.6575 18.344 82.8415 18.008C83.0335 17.664 83.1295 17.268 83.1295 16.82C83.1295 16.364 83.0335 15.972 82.8415 15.644C82.6575 15.308 82.4015 15.048 82.0735 14.864C81.7535 14.68 81.3935 14.588 80.9935 14.588C80.5855 14.588 80.2215 14.68 79.9015 14.864C79.5815 15.048 79.3255 15.308 79.1335 15.644C78.9415 15.972 78.8455 16.364 78.8455 16.82C78.8455 17.268 78.9415 17.664 79.1335 18.008C79.3255 18.344 79.5815 18.604 79.9015 18.788C80.2215 18.972 80.5855 19.064 80.9935 19.064ZM83.1655 20V18.284L83.2375 16.808L83.1175 15.332V11.096H84.2695V20H83.1655Z" fill="white"/>
<path d="M29.5452 11.0117C28.5077 10.5356 27.4129 10.1957 26.2882 10.0007C26.278 9.99898 26.2675 10.0005 26.2582 10.0049C26.2489 10.0094 26.2412 10.0167 26.2362 10.0257C26.0952 10.2757 25.9392 10.6027 25.8302 10.8587C24.6178 10.6747 23.3846 10.6747 22.1722 10.8587C22.0506 10.5735 21.913 10.2954 21.7602 10.0257C21.755 10.0168 21.7473 10.0096 21.738 10.0051C21.7288 10.0007 21.7183 9.99912 21.7082 10.0007C20.5832 10.1947 19.4882 10.5347 18.4512 11.0117C18.4423 11.0151 18.4349 11.0214 18.4302 11.0297C16.3562 14.1287 15.7872 17.1517 16.0662 20.1367C16.0672 20.1507 16.0762 20.1647 16.0872 20.1737C17.2949 21.0683 18.6458 21.7514 20.0822 22.1937C20.0923 22.1969 20.1032 22.1968 20.1133 22.1934C20.1233 22.1899 20.1321 22.1834 20.1382 22.1747C20.4462 21.7547 20.7202 21.3117 20.9562 20.8457C20.9611 20.8361 20.9628 20.8252 20.961 20.8145C20.9592 20.8039 20.954 20.7941 20.9462 20.7867C20.941 20.7818 20.9349 20.7781 20.9282 20.7757C20.4973 20.6101 20.0801 20.4112 19.6802 20.1807C19.669 20.1744 19.6607 20.164 19.657 20.1517C19.6532 20.1394 19.6544 20.1262 19.6602 20.1147C19.6636 20.1072 19.6687 20.1007 19.6752 20.0957C19.7592 20.0327 19.8432 19.9667 19.9232 19.9007C19.9302 19.895 19.9387 19.8914 19.9477 19.8901C19.9567 19.8889 19.9658 19.8901 19.9742 19.8937C22.5932 21.0897 25.4282 21.0897 28.0152 19.8937C28.0238 19.89 28.0333 19.8886 28.0426 19.8899C28.052 19.8911 28.0608 19.8948 28.0682 19.9007C28.1482 19.9667 28.2322 20.0327 28.3162 20.0957C28.323 20.1007 28.3284 20.1073 28.3321 20.1149C28.3357 20.1225 28.3374 20.1308 28.337 20.1393C28.3366 20.1477 28.3341 20.1559 28.3298 20.1631C28.3255 20.1703 28.3194 20.1764 28.3122 20.1807C27.9132 20.4133 27.4954 20.612 27.0632 20.7747C27.0563 20.7772 27.05 20.7812 27.0448 20.7864C27.0396 20.7915 27.0357 20.7978 27.0332 20.8047C27.0309 20.8114 27.0299 20.8185 27.0304 20.8255C27.031 20.8326 27.0329 20.8394 27.0362 20.8457C27.2762 21.3107 27.5512 21.7547 27.8532 22.1747C27.8593 22.1834 27.868 22.1899 27.8781 22.1934C27.8881 22.1968 27.899 22.1969 27.9092 22.1937C29.348 21.7527 30.701 21.0696 31.9102 20.1737C31.9162 20.1695 31.9213 20.164 31.9249 20.1576C31.9285 20.1512 31.9307 20.144 31.9312 20.1367C32.2652 16.6857 31.3722 13.6877 29.5652 11.0307C29.5633 11.0263 29.5606 11.0223 29.5572 11.0191C29.5537 11.0158 29.5496 11.0133 29.5452 11.0117V11.0117ZM21.3472 18.3187C20.5582 18.3187 19.9092 17.5947 19.9092 16.7067C19.9092 15.8177 20.5462 15.0937 21.3472 15.0937C22.1542 15.0937 22.7972 15.8237 22.7852 16.7067C22.7852 17.5947 22.1482 18.3187 21.3472 18.3187ZM26.6632 18.3187C25.8752 18.3187 25.2252 17.5947 25.2252 16.7067C25.2252 15.8177 25.8622 15.0937 26.6632 15.0937C27.4702 15.0937 28.1142 15.8237 28.1012 16.7067C28.1012 17.5947 27.4702 18.3187 26.6632 18.3187Z" fill="white"/>
</svg>
