<svg width="93" height="32" viewBox="0 0 93 32" fill="none" xmlns="http://www.w3.org/2000/svg">
<rect x="0.5" y="0.5" width="92" height="31" rx="5.5" fill="white" stroke="#D0D7DE"/>
<path d="M41.092 15.224H45.412V16.244H41.092V15.224ZM41.2 18.956H46.096V20H40V11.6H45.928V12.644H41.2V18.956ZM47.2287 17.204V16.208H50.4567V17.204H47.2287ZM60.1864 13.58C60.6984 13.58 61.1504 13.68 61.5424 13.88C61.9344 14.08 62.2384 14.384 62.4544 14.792C62.6784 15.2 62.7904 15.716 62.7904 16.34V20H61.6384V16.472C61.6384 15.856 61.4944 15.392 61.2064 15.08C60.9184 14.768 60.5144 14.612 59.9944 14.612C59.6104 14.612 59.2744 14.692 58.9864 14.852C58.6984 15.012 58.4744 15.248 58.3144 15.56C58.1624 15.872 58.0864 16.26 58.0864 16.724V20H56.9344V16.472C56.9344 15.856 56.7904 15.392 56.5024 15.08C56.2224 14.768 55.8184 14.612 55.2904 14.612C54.9144 14.612 54.5824 14.692 54.2944 14.852C54.0064 15.012 53.7824 15.248 53.6224 15.56C53.4624 15.872 53.3824 16.26 53.3824 16.724V20H52.2304V13.64H53.3344V15.332L53.1544 14.9C53.3544 14.484 53.6624 14.16 54.0784 13.928C54.4944 13.696 54.9784 13.58 55.5304 13.58C56.1384 13.58 56.6624 13.732 57.1024 14.036C57.5424 14.332 57.8304 14.784 57.9664 15.392L57.4984 15.2C57.6904 14.712 58.0264 14.32 58.5064 14.024C58.9864 13.728 59.5464 13.58 60.1864 13.58ZM68.8581 20V18.656L68.7981 18.404V16.112C68.7981 15.624 68.6541 15.248 68.3661 14.984C68.0861 14.712 67.6621 14.576 67.0941 14.576C66.7181 14.576 66.3501 14.64 65.9901 14.768C65.6301 14.888 65.3261 15.052 65.0781 15.26L64.5981 14.396C64.9261 14.132 65.3181 13.932 65.7741 13.796C66.2381 13.652 66.7221 13.58 67.2261 13.58C68.0981 13.58 68.7701 13.792 69.2421 14.216C69.7141 14.64 69.9501 15.288 69.9501 16.16V20H68.8581ZM66.7701 20.072C66.2981 20.072 65.8821 19.992 65.5221 19.832C65.1701 19.672 64.8981 19.452 64.7061 19.172C64.5141 18.884 64.4181 18.56 64.4181 18.2C64.4181 17.856 64.4981 17.544 64.6581 17.264C64.8261 16.984 65.0941 16.76 65.4621 16.592C65.8381 16.424 66.3421 16.34 66.9741 16.34H68.9901V17.168H67.0221C66.4461 17.168 66.0581 17.264 65.8581 17.456C65.6581 17.648 65.5581 17.88 65.5581 18.152C65.5581 18.464 65.6821 18.716 65.9301 18.908C66.1781 19.092 66.5221 19.184 66.9621 19.184C67.3941 19.184 67.7701 19.088 68.0901 18.896C68.4181 18.704 68.6541 18.424 68.7981 18.056L69.0261 18.848C68.8741 19.224 68.6061 19.524 68.2221 19.748C67.8381 19.964 67.3541 20.072 66.7701 20.072ZM72.082 20V13.64H73.234V20H72.082ZM72.658 12.416C72.434 12.416 72.246 12.344 72.094 12.2C71.95 12.056 71.878 11.88 71.878 11.672C71.878 11.456 71.95 11.276 72.094 11.132C72.246 10.988 72.434 10.916 72.658 10.916C72.882 10.916 73.066 10.988 73.21 11.132C73.362 11.268 73.438 11.44 73.438 11.648C73.438 11.864 73.366 12.048 73.222 12.2C73.078 12.344 72.89 12.416 72.658 12.416ZM75.4336 20V11.096H76.5856V20H75.4336Z" fill="#24292F"/>
<path d="M16.05 11.555C16.1508 11.1132 16.3987 10.7188 16.7529 10.4363C17.1072 10.1538 17.5469 9.99997 18 10H30C30.4531 9.99997 30.8928 10.1538 31.2471 10.4363C31.6013 10.7188 31.8492 11.1132 31.95 11.555L24 16.414L16.05 11.555ZM16 12.697V19.801L21.803 16.243L16 12.697ZM22.761 16.83L16.191 20.857C16.3533 21.1993 16.6095 21.4884 16.9298 21.6908C17.25 21.8931 17.6212 22.0004 18 22H30C30.3788 22.0001 30.7498 21.8926 31.0698 21.6901C31.3899 21.4876 31.6459 21.1983 31.808 20.856L25.238 16.829L24 17.586L22.761 16.829V16.83ZM26.197 16.244L32 19.801V12.697L26.197 16.243V16.244Z" fill="#24292F"/>
</svg>
