<svg width="114" height="32" viewBox="0 0 114 32" fill="none" xmlns="http://www.w3.org/2000/svg">
<rect width="114" height="32" rx="6" fill="#1771E6"/>
<path d="M41.08 15.572H45.412V16.604H41.08V15.572ZM41.2 20H40V11.6H45.928V12.644H41.2V20ZM51.1628 20V18.656L51.1028 18.404V16.112C51.1028 15.624 50.9588 15.248 50.6708 14.984C50.3908 14.712 49.9668 14.576 49.3988 14.576C49.0228 14.576 48.6548 14.64 48.2948 14.768C47.9348 14.888 47.6308 15.052 47.3828 15.26L46.9028 14.396C47.2308 14.132 47.6228 13.932 48.0788 13.796C48.5428 13.652 49.0268 13.58 49.5308 13.58C50.4028 13.58 51.0748 13.792 51.5468 14.216C52.0188 14.64 52.2548 15.288 52.2548 16.16V20H51.1628ZM49.0748 20.072C48.6028 20.072 48.1868 19.992 47.8268 19.832C47.4748 19.672 47.2028 19.452 47.0108 19.172C46.8188 18.884 46.7228 18.56 46.7228 18.2C46.7228 17.856 46.8028 17.544 46.9628 17.264C47.1308 16.984 47.3988 16.76 47.7668 16.592C48.1428 16.424 48.6468 16.34 49.2788 16.34H51.2948V17.168H49.3268C48.7508 17.168 48.3628 17.264 48.1628 17.456C47.9628 17.648 47.8628 17.88 47.8628 18.152C47.8628 18.464 47.9868 18.716 48.2348 18.908C48.4828 19.092 48.8268 19.184 49.2668 19.184C49.6988 19.184 50.0748 19.088 50.3948 18.896C50.7228 18.704 50.9588 18.424 51.1028 18.056L51.3308 18.848C51.1788 19.224 50.9108 19.524 50.5268 19.748C50.1428 19.964 49.6588 20.072 49.0748 20.072ZM57.1587 20.072C56.5107 20.072 55.9307 19.932 55.4187 19.652C54.9147 19.372 54.5187 18.988 54.2307 18.5C53.9427 18.012 53.7987 17.452 53.7987 16.82C53.7987 16.188 53.9427 15.628 54.2307 15.14C54.5187 14.652 54.9147 14.272 55.4187 14C55.9307 13.72 56.5107 13.58 57.1587 13.58C57.7347 13.58 58.2467 13.696 58.6947 13.928C59.1507 14.152 59.5027 14.488 59.7507 14.936L58.8747 15.5C58.6667 15.188 58.4107 14.96 58.1067 14.816C57.8107 14.664 57.4907 14.588 57.1467 14.588C56.7307 14.588 56.3587 14.68 56.0307 14.864C55.7027 15.048 55.4427 15.308 55.2507 15.644C55.0587 15.972 54.9627 16.364 54.9627 16.82C54.9627 17.276 55.0587 17.672 55.2507 18.008C55.4427 18.344 55.7027 18.604 56.0307 18.788C56.3587 18.972 56.7307 19.064 57.1467 19.064C57.4907 19.064 57.8107 18.992 58.1067 18.848C58.4107 18.696 58.6667 18.464 58.8747 18.152L59.7507 18.704C59.5027 19.144 59.1507 19.484 58.6947 19.724C58.2467 19.956 57.7347 20.072 57.1587 20.072ZM63.9804 20.072C63.3004 20.072 62.7004 19.932 62.1804 19.652C61.6684 19.372 61.2684 18.988 60.9804 18.5C60.7004 18.012 60.5604 17.452 60.5604 16.82C60.5604 16.188 60.6964 15.628 60.9684 15.14C61.2484 14.652 61.6284 14.272 62.1084 14C62.5964 13.72 63.1444 13.58 63.7524 13.58C64.3684 13.58 64.9124 13.716 65.3844 13.988C65.8564 14.26 66.2244 14.644 66.4884 15.14C66.7604 15.628 66.8964 16.2 66.8964 16.856C66.8964 16.904 66.8924 16.96 66.8844 17.024C66.8844 17.088 66.8804 17.148 66.8724 17.204H61.4604V16.376H66.2724L65.8044 16.664C65.8124 16.256 65.7284 15.892 65.5524 15.572C65.3764 15.252 65.1324 15.004 64.8204 14.828C64.5164 14.644 64.1604 14.552 63.7524 14.552C63.3524 14.552 62.9964 14.644 62.6844 14.828C62.3724 15.004 62.1284 15.256 61.9524 15.584C61.7764 15.904 61.6884 16.272 61.6884 16.688V16.88C61.6884 17.304 61.7844 17.684 61.9764 18.02C62.1764 18.348 62.4524 18.604 62.8044 18.788C63.1564 18.972 63.5604 19.064 64.0164 19.064C64.3924 19.064 64.7324 19 65.0364 18.872C65.3484 18.744 65.6204 18.552 65.8524 18.296L66.4884 19.04C66.2004 19.376 65.8404 19.632 65.4084 19.808C64.9844 19.984 64.5084 20.072 63.9804 20.072ZM71.8681 20.072C71.3241 20.072 70.8321 19.952 70.3921 19.712C69.9601 19.464 69.6161 19.1 69.3601 18.62C69.1121 18.14 68.9881 17.54 68.9881 16.82C68.9881 16.1 69.1161 15.5 69.3721 15.02C69.6361 14.54 69.9841 14.18 70.4161 13.94C70.8561 13.7 71.3401 13.58 71.8681 13.58C72.4921 13.58 73.0441 13.716 73.5241 13.988C74.0041 14.26 74.3841 14.64 74.6641 15.128C74.9441 15.608 75.0841 16.172 75.0841 16.82C75.0841 17.468 74.9441 18.036 74.6641 18.524C74.3841 19.012 74.0041 19.392 73.5241 19.664C73.0441 19.936 72.4921 20.072 71.8681 20.072ZM68.4961 20V11.096H69.6481V15.332L69.5281 16.808L69.6001 18.284V20H68.4961ZM71.7721 19.064C72.1801 19.064 72.5441 18.972 72.8641 18.788C73.1921 18.604 73.4481 18.344 73.6321 18.008C73.8241 17.664 73.9201 17.268 73.9201 16.82C73.9201 16.364 73.8241 15.972 73.6321 15.644C73.4481 15.308 73.1921 15.048 72.8641 14.864C72.5441 14.68 72.1801 14.588 71.7721 14.588C71.3721 14.588 71.0081 14.68 70.6801 14.864C70.3601 15.048 70.1041 15.308 69.9121 15.644C69.7281 15.972 69.6361 16.364 69.6361 16.82C69.6361 17.268 69.7281 17.664 69.9121 18.008C70.1041 18.344 70.3601 18.604 70.6801 18.788C71.0081 18.972 71.3721 19.064 71.7721 19.064ZM79.3997 20.072C78.7597 20.072 78.1917 19.932 77.6957 19.652C77.1997 19.372 76.8077 18.988 76.5197 18.5C76.2317 18.004 76.0877 17.444 76.0877 16.82C76.0877 16.188 76.2317 15.628 76.5197 15.14C76.8077 14.652 77.1997 14.272 77.6957 14C78.1917 13.72 78.7597 13.58 79.3997 13.58C80.0317 13.58 80.5957 13.72 81.0917 14C81.5957 14.272 81.9877 14.652 82.2677 15.14C82.5557 15.62 82.6997 16.18 82.6997 16.82C82.6997 17.452 82.5557 18.012 82.2677 18.5C81.9877 18.988 81.5957 19.372 81.0917 19.652C80.5957 19.932 80.0317 20.072 79.3997 20.072ZM79.3997 19.064C79.8077 19.064 80.1717 18.972 80.4917 18.788C80.8197 18.604 81.0757 18.344 81.2597 18.008C81.4437 17.664 81.5357 17.268 81.5357 16.82C81.5357 16.364 81.4437 15.972 81.2597 15.644C81.0757 15.308 80.8197 15.048 80.4917 14.864C80.1717 14.68 79.8077 14.588 79.3997 14.588C78.9917 14.588 78.6277 14.68 78.3077 14.864C77.9877 15.048 77.7317 15.308 77.5397 15.644C77.3477 15.972 77.2517 16.364 77.2517 16.82C77.2517 17.268 77.3477 17.664 77.5397 18.008C77.7317 18.344 77.9877 18.604 78.3077 18.788C78.6277 18.972 78.9917 19.064 79.3997 19.064ZM87.0169 20.072C86.3769 20.072 85.8089 19.932 85.3129 19.652C84.8169 19.372 84.4249 18.988 84.1369 18.5C83.8489 18.004 83.7049 17.444 83.7049 16.82C83.7049 16.188 83.8489 15.628 84.1369 15.14C84.4249 14.652 84.8169 14.272 85.3129 14C85.8089 13.72 86.3769 13.58 87.0169 13.58C87.6489 13.58 88.2129 13.72 88.7089 14C89.2129 14.272 89.6049 14.652 89.8849 15.14C90.1729 15.62 90.3169 16.18 90.3169 16.82C90.3169 17.452 90.1729 18.012 89.8849 18.5C89.6049 18.988 89.2129 19.372 88.7089 19.652C88.2129 19.932 87.6489 20.072 87.0169 20.072ZM87.0169 19.064C87.4249 19.064 87.7889 18.972 88.1089 18.788C88.4369 18.604 88.6929 18.344 88.8769 18.008C89.0609 17.664 89.1529 17.268 89.1529 16.82C89.1529 16.364 89.0609 15.972 88.8769 15.644C88.6929 15.308 88.4369 15.048 88.1089 14.864C87.7889 14.68 87.4249 14.588 87.0169 14.588C86.6089 14.588 86.2449 14.68 85.9249 14.864C85.6049 15.048 85.3489 15.308 85.1569 15.644C84.9649 15.972 84.8689 16.364 84.8689 16.82C84.8689 17.268 84.9649 17.664 85.1569 18.008C85.3489 18.344 85.6049 18.604 85.9249 18.788C86.2449 18.972 86.6089 19.064 87.0169 19.064ZM92.8461 18.464L92.8701 16.988L96.5301 13.64H97.9221L95.1141 16.4L94.4901 16.928L92.8461 18.464ZM91.9101 20V11.096H93.0621V20H91.9101ZM96.7701 20L94.2741 16.904L95.0181 15.98L98.1861 20H96.7701Z" fill="white"/>
<path d="M32.002 16.05C32.002 11.604 28.42 8 24.002 8C19.582 8.001 16 11.604 16 16.051C16 20.068 18.926 23.398 22.75 24.002V18.377H20.72V16.051H22.752V14.276C22.752 12.259 23.947 11.145 25.774 11.145C26.65 11.145 27.565 11.302 27.565 11.302V13.282H26.556C25.563 13.282 25.253 13.903 25.253 14.54V16.05H27.471L27.117 18.376H25.252V24.001C29.076 23.397 32.002 20.067 32.002 16.05Z" fill="white"/>
</svg>
