<svg width="88" height="32" viewBox="0 0 88 32" fill="none" xmlns="http://www.w3.org/2000/svg">
<rect width="88" height="32" rx="6" fill="#DD4B25"/>
<path d="M44.024 11.6H45.224V20H44.024V11.6ZM39.2 20H38V11.6H39.2V20ZM44.132 16.256H39.08V15.212H44.132V16.256ZM49.4063 20V12.644H46.5263V11.6H53.4743V12.644H50.5943V20H49.4063ZM54.7812 20V11.6H55.7652L59.5332 17.948H59.0052L62.7252 11.6H63.7092L63.7212 20H62.5692L62.5572 13.412H62.8332L59.5212 18.98H58.9692L55.6332 13.412H55.9332V20H54.7812ZM66.2422 20V11.6H67.4422V18.956H71.9902V20H66.2422Z" fill="white"/>
<path d="M16 8L17.2464 22.1357L22.8393 24L28.4679 22.1357L29.7143 8H16ZM27.0071 12.5679H20.4429L20.5893 14.3321H26.8607L26.375 19.6321L22.8786 20.5964V20.6071H22.8393L19.3143 19.6321L19.1 16.925H20.8036L20.9286 18.2857L22.8393 18.8036L24.7571 18.2857L24.9714 16.0643H19.0107L18.5536 10.8643H27.1643L27.0071 12.5679V12.5679Z" fill="white"/>
</svg>
