<svg width="118" height="32" viewBox="0 0 118 32" fill="none" xmlns="http://www.w3.org/2000/svg">
<rect width="118" height="32" rx="6" fill="#fcdc00"/>
<path d="M42.45 20.096C41.954 20.096 41.49 19.992 41.058 19.784C40.626 19.576 40.274 19.276 40.002 18.884L40.698 18.068C40.93 18.388 41.19 18.636 41.478 18.812C41.774 18.98 42.098 19.064 42.45 19.064C43.41 19.064 43.89 18.496 43.89 17.36V12.644H40.854V11.6H45.078V17.3C45.078 18.236 44.854 18.936 44.406 19.4C43.966 19.864 43.314 20.096 42.45 20.096ZM51.3023 20V18.656L51.2423 18.404V16.112C51.2423 15.624 51.0983 15.248 50.8103 14.984C50.5303 14.712 50.1063 14.576 49.5383 14.576C49.1623 14.576 48.7943 14.64 48.4343 14.768C48.0743 14.888 47.7703 15.052 47.5223 15.26L47.0423 14.396C47.3703 14.132 47.7623 13.932 48.2183 13.796C48.6823 13.652 49.1663 13.58 49.6703 13.58C50.5423 13.58 51.2143 13.792 51.6863 14.216C52.1583 14.64 52.3943 15.288 52.3943 16.16V20H51.3023ZM49.2143 20.072C48.7423 20.072 48.3263 19.992 47.9663 19.832C47.6143 19.672 47.3423 19.452 47.1503 19.172C46.9583 18.884 46.8623 18.56 46.8623 18.2C46.8623 17.856 46.9423 17.544 47.1023 17.264C47.2703 16.984 47.5383 16.76 47.9063 16.592C48.2823 16.424 48.7863 16.34 49.4183 16.34H51.4343V17.168H49.4663C48.8903 17.168 48.5023 17.264 48.3023 17.456C48.1023 17.648 48.0023 17.88 48.0023 18.152C48.0023 18.464 48.1263 18.716 48.3743 18.908C48.6223 19.092 48.9663 19.184 49.4063 19.184C49.8383 19.184 50.2143 19.088 50.5343 18.896C50.8623 18.704 51.0983 18.424 51.2423 18.056L51.4703 18.848C51.3183 19.224 51.0503 19.524 50.6663 19.748C50.2823 19.964 49.7983 20.072 49.2143 20.072ZM56.077 20L53.293 13.64H54.493L56.965 19.4H56.389L58.909 13.64H60.037L57.253 20H56.077ZM64.8609 20V18.656L64.8009 18.404V16.112C64.8009 15.624 64.6569 15.248 64.3689 14.984C64.0889 14.712 63.6649 14.576 63.0969 14.576C62.7209 14.576 62.3529 14.64 61.9929 14.768C61.6329 14.888 61.3289 15.052 61.0809 15.26L60.6009 14.396C60.9289 14.132 61.3209 13.932 61.7769 13.796C62.2409 13.652 62.7249 13.58 63.2289 13.58C64.1009 13.58 64.7729 13.792 65.2449 14.216C65.7169 14.64 65.9529 15.288 65.9529 16.16V20H64.8609ZM62.7729 20.072C62.3009 20.072 61.8849 19.992 61.5249 19.832C61.1729 19.672 60.9009 19.452 60.7089 19.172C60.5169 18.884 60.4209 18.56 60.4209 18.2C60.4209 17.856 60.5009 17.544 60.6609 17.264C60.8289 16.984 61.0969 16.76 61.4649 16.592C61.8409 16.424 62.3449 16.34 62.9769 16.34H64.9929V17.168H63.0249C62.4489 17.168 62.0609 17.264 61.8609 17.456C61.6609 17.648 61.5609 17.88 61.5609 18.152C61.5609 18.464 61.6849 18.716 61.9329 18.908C62.1809 19.092 62.5249 19.184 62.9649 19.184C63.3969 19.184 63.7729 19.088 64.0929 18.896C64.4209 18.704 64.6569 18.424 64.8009 18.056L65.0289 18.848C64.8769 19.224 64.6089 19.524 64.2249 19.748C63.8409 19.964 63.3569 20.072 62.7729 20.072ZM70.7008 20.096C70.0608 20.096 69.4488 20 68.8648 19.808C68.2808 19.608 67.8208 19.352 67.4848 19.04L67.9288 18.104C68.2488 18.384 68.6568 18.616 69.1528 18.8C69.6488 18.984 70.1648 19.076 70.7008 19.076C71.1888 19.076 71.5848 19.02 71.8888 18.908C72.1928 18.796 72.4168 18.644 72.5608 18.452C72.7048 18.252 72.7768 18.028 72.7768 17.78C72.7768 17.492 72.6808 17.26 72.4888 17.084C72.3048 16.908 72.0608 16.768 71.7568 16.664C71.4608 16.552 71.1328 16.456 70.7728 16.376C70.4128 16.296 70.0488 16.204 69.6808 16.1C69.3208 15.988 68.9888 15.848 68.6848 15.68C68.3888 15.512 68.1488 15.288 67.9648 15.008C67.7808 14.72 67.6888 14.352 67.6888 13.904C67.6888 13.472 67.8008 13.076 68.0248 12.716C68.2568 12.348 68.6088 12.056 69.0808 11.84C69.5608 11.616 70.1688 11.504 70.9048 11.504C71.3928 11.504 71.8768 11.568 72.3568 11.696C72.8368 11.824 73.2528 12.008 73.6048 12.248L73.2088 13.208C72.8488 12.968 72.4688 12.796 72.0688 12.692C71.6688 12.58 71.2808 12.524 70.9048 12.524C70.4328 12.524 70.0448 12.584 69.7408 12.704C69.4368 12.824 69.2128 12.984 69.0688 13.184C68.9328 13.384 68.8648 13.608 68.8648 13.856C68.8648 14.152 68.9568 14.388 69.1408 14.564C69.3328 14.74 69.5768 14.88 69.8728 14.984C70.1768 15.088 70.5088 15.184 70.8688 15.272C71.2288 15.352 71.5888 15.444 71.9488 15.548C72.3168 15.652 72.6488 15.788 72.9448 15.956C73.2488 16.124 73.4928 16.348 73.6768 16.628C73.8608 16.908 73.9528 17.268 73.9528 17.708C73.9528 18.132 73.8368 18.528 73.6048 18.896C73.3728 19.256 73.0128 19.548 72.5248 19.772C72.0448 19.988 71.4368 20.096 70.7008 20.096ZM78.3099 20.072C77.6619 20.072 77.0819 19.932 76.5699 19.652C76.0659 19.372 75.6699 18.988 75.3819 18.5C75.0939 18.012 74.9499 17.452 74.9499 16.82C74.9499 16.188 75.0939 15.628 75.3819 15.14C75.6699 14.652 76.0659 14.272 76.5699 14C77.0819 13.72 77.6619 13.58 78.3099 13.58C78.8859 13.58 79.3979 13.696 79.8459 13.928C80.3019 14.152 80.6539 14.488 80.9019 14.936L80.0259 15.5C79.8179 15.188 79.5619 14.96 79.2579 14.816C78.9619 14.664 78.6419 14.588 78.2979 14.588C77.8819 14.588 77.5099 14.68 77.1819 14.864C76.8539 15.048 76.5939 15.308 76.4019 15.644C76.2099 15.972 76.1139 16.364 76.1139 16.82C76.1139 17.276 76.2099 17.672 76.4019 18.008C76.5939 18.344 76.8539 18.604 77.1819 18.788C77.5099 18.972 77.8819 19.064 78.2979 19.064C78.6419 19.064 78.9619 18.992 79.2579 18.848C79.5619 18.696 79.8179 18.464 80.0259 18.152L80.9019 18.704C80.6539 19.144 80.3019 19.484 79.8459 19.724C79.3979 19.956 78.8859 20.072 78.3099 20.072ZM82.3934 20V13.64H83.4974V15.368L83.3894 14.936C83.5654 14.496 83.8614 14.16 84.2774 13.928C84.6934 13.696 85.2054 13.58 85.8134 13.58V14.696C85.7654 14.688 85.7174 14.684 85.6694 14.684C85.6294 14.684 85.5894 14.684 85.5494 14.684C84.9334 14.684 84.4454 14.868 84.0854 15.236C83.7254 15.604 83.5454 16.136 83.5454 16.832V20H82.3934ZM87.2333 20V13.64H88.3853V20H87.2333ZM87.8093 12.416C87.5853 12.416 87.3973 12.344 87.2453 12.2C87.1013 12.056 87.0293 11.88 87.0293 11.672C87.0293 11.456 87.1013 11.276 87.2453 11.132C87.3973 10.988 87.5853 10.916 87.8093 10.916C88.0333 10.916 88.2173 10.988 88.3613 11.132C88.5133 11.268 88.5893 11.44 88.5893 11.648C88.5893 11.864 88.5173 12.048 88.3733 12.2C88.2293 12.344 88.0413 12.416 87.8093 12.416ZM93.9568 20.072C93.4288 20.072 92.9448 19.952 92.5048 19.712C92.0728 19.464 91.7248 19.1 91.4608 18.62C91.2048 18.14 91.0768 17.54 91.0768 16.82C91.0768 16.1 91.2008 15.5 91.4488 15.02C91.7048 14.54 92.0488 14.18 92.4808 13.94C92.9208 13.7 93.4128 13.58 93.9568 13.58C94.5808 13.58 95.1328 13.716 95.6128 13.988C96.0928 14.26 96.4728 14.64 96.7528 15.128C97.0328 15.608 97.1728 16.172 97.1728 16.82C97.1728 17.468 97.0328 18.036 96.7528 18.524C96.4728 19.012 96.0928 19.392 95.6128 19.664C95.1328 19.936 94.5808 20.072 93.9568 20.072ZM90.5848 22.328V13.64H91.6888V15.356L91.6168 16.832L91.7368 18.308V22.328H90.5848ZM93.8608 19.064C94.2688 19.064 94.6328 18.972 94.9528 18.788C95.2808 18.604 95.5368 18.344 95.7208 18.008C95.9128 17.664 96.0088 17.268 96.0088 16.82C96.0088 16.364 95.9128 15.972 95.7208 15.644C95.5368 15.308 95.2808 15.048 94.9528 14.864C94.6328 14.68 94.2688 14.588 93.8608 14.588C93.4608 14.588 93.0968 14.68 92.7688 14.864C92.4488 15.048 92.1928 15.308 92.0008 15.644C91.8168 15.972 91.7248 16.364 91.7248 16.82C91.7248 17.268 91.8168 17.664 92.0008 18.008C92.1928 18.344 92.4488 18.604 92.7688 18.788C93.0968 18.972 93.4608 19.064 93.8608 19.064ZM100.949 20.072C100.309 20.072 99.8125 19.9 99.4605 19.556C99.1085 19.212 98.9325 18.72 98.9325 18.08V12.248H100.085V18.032C100.085 18.376 100.169 18.64 100.337 18.824C100.513 19.008 100.761 19.1 101.081 19.1C101.441 19.1 101.741 19 101.981 18.8L102.341 19.628C102.165 19.78 101.953 19.892 101.705 19.964C101.465 20.036 101.213 20.072 100.949 20.072ZM97.8525 14.588V13.64H101.909V14.588H97.8525Z" fill="#181818"/>
<path d="M16 16V8H24H32V16V24H24H16V16ZM23.0043 22.6812C23.9665 22.5149 24.546 21.8997 24.6747 20.9077C24.6877 20.8079 24.697 19.6254 24.6974 18.0315L24.6981 15.3247H23.9542H23.2103L23.2099 17.8827C23.2097 19.4137 23.2004 20.5273 23.1868 20.6566C23.1417 21.0847 22.9816 21.293 22.6427 21.3648C22.1625 21.4666 21.805 21.274 21.5114 20.7554C21.474 20.6893 21.4326 20.6352 21.4194 20.6352C21.3977 20.6352 20.2727 21.3054 20.227 21.3455C20.1795 21.3873 20.4644 21.8232 20.6865 22.0483C21.232 22.6013 22.0981 22.8378 23.0043 22.6812H23.0043ZM28.7611 22.693C29.3729 22.6159 29.8716 22.3795 30.2371 21.9933C30.3869 21.8351 30.4432 21.754 30.5337 21.5657C30.6824 21.2565 30.7193 21.1001 30.734 20.7153C30.7606 20.0188 30.5766 19.5262 30.1306 19.1002C29.8109 18.7947 29.4078 18.5588 28.6466 18.2317C27.866 17.8962 27.6259 17.7427 27.5115 17.5064C27.432 17.3422 27.4361 17.0941 27.5212 16.9209C27.6472 16.6644 27.8903 16.5459 28.2488 16.5664C28.5904 16.5858 28.8286 16.7299 29.0366 17.0427L29.1403 17.1988L29.6645 16.8626C29.9528 16.6777 30.2151 16.5059 30.2473 16.4807L30.306 16.4349L30.1767 16.2433C29.8528 15.7631 29.424 15.4582 28.8823 15.3229C28.6087 15.2546 27.9947 15.2369 27.6967 15.2887C27.2058 15.3742 26.8583 15.5464 26.5385 15.8627C26.249 16.149 26.0925 16.4355 26.0114 16.8276C25.9543 17.1039 25.9773 17.6282 26.0584 17.8987C26.2657 18.5904 26.7316 19.0362 27.689 19.4588C27.8758 19.5413 28.1675 19.6702 28.3372 19.7452C29.0212 20.0477 29.2378 20.2645 29.2378 20.6466C29.2378 21.0001 29.0126 21.2462 28.5878 21.3569C28.3602 21.4162 27.9263 21.3952 27.6879 21.3134C27.3632 21.202 27.0521 20.9512 26.8383 20.6285C26.7767 20.5355 26.74 20.5 26.7153 20.5094C26.6443 20.5367 25.5222 21.1941 25.5222 21.2084C25.5222 21.2609 25.8677 21.7304 26.0163 21.8797C26.6749 22.5418 27.6554 22.8324 28.7611 22.693V22.693Z" fill="#181818"/>
</svg>
