<svg width="107" height="32" viewBox="0 0 107 32" fill="none" xmlns="http://www.w3.org/2000/svg">
<rect width="107" height="32" rx="6" fill="#0A66C2"/>
<path d="M40 20V11.6H41.2V18.956H45.748V20H40ZM46.957 20V13.64H48.109V20H46.957ZM47.533 12.416C47.309 12.416 47.121 12.344 46.969 12.2C46.825 12.056 46.753 11.88 46.753 11.672C46.753 11.456 46.825 11.276 46.969 11.132C47.121 10.988 47.309 10.916 47.533 10.916C47.757 10.916 47.941 10.988 48.085 11.132C48.237 11.268 48.313 11.44 48.313 11.648C48.313 11.864 48.241 12.048 48.097 12.2C47.953 12.344 47.765 12.416 47.533 12.416ZM53.7046 13.58C54.2246 13.58 54.6806 13.68 55.0726 13.88C55.4726 14.08 55.7846 14.384 56.0086 14.792C56.2326 15.2 56.3446 15.716 56.3446 16.34V20H55.1926V16.472C55.1926 15.856 55.0406 15.392 54.7366 15.08C54.4406 14.768 54.0206 14.612 53.4766 14.612C53.0686 14.612 52.7126 14.692 52.4086 14.852C52.1046 15.012 51.8686 15.248 51.7006 15.56C51.5406 15.872 51.4606 16.26 51.4606 16.724V20H50.3086V13.64H51.4126V15.356L51.2326 14.9C51.4406 14.484 51.7606 14.16 52.1926 13.928C52.6246 13.696 53.1286 13.58 53.7046 13.58ZM59.4125 18.464L59.4365 16.988L63.0965 13.64H64.4885L61.6805 16.4L61.0565 16.928L59.4125 18.464ZM58.4765 20V11.096H59.6285V20H58.4765ZM63.3365 20L60.8405 16.904L61.5845 15.98L64.7525 20H63.3365ZM68.4453 20.072C67.7653 20.072 67.1653 19.932 66.6453 19.652C66.1333 19.372 65.7333 18.988 65.4453 18.5C65.1653 18.012 65.0253 17.452 65.0253 16.82C65.0253 16.188 65.1613 15.628 65.4333 15.14C65.7133 14.652 66.0933 14.272 66.5733 14C67.0613 13.72 67.6093 13.58 68.2173 13.58C68.8333 13.58 69.3773 13.716 69.8493 13.988C70.3213 14.26 70.6893 14.644 70.9533 15.14C71.2253 15.628 71.3613 16.2 71.3613 16.856C71.3613 16.904 71.3573 16.96 71.3493 17.024C71.3493 17.088 71.3453 17.148 71.3373 17.204H65.9253V16.376H70.7373L70.2693 16.664C70.2773 16.256 70.1933 15.892 70.0173 15.572C69.8413 15.252 69.5973 15.004 69.2853 14.828C68.9813 14.644 68.6253 14.552 68.2173 14.552C67.8173 14.552 67.4613 14.644 67.1493 14.828C66.8373 15.004 66.5933 15.256 66.4173 15.584C66.2413 15.904 66.1533 16.272 66.1533 16.688V16.88C66.1533 17.304 66.2493 17.684 66.4413 18.02C66.6413 18.348 66.9173 18.604 67.2693 18.788C67.6213 18.972 68.0253 19.064 68.4813 19.064C68.8573 19.064 69.1973 19 69.5013 18.872C69.8133 18.744 70.0853 18.552 70.3173 18.296L70.9533 19.04C70.6653 19.376 70.3053 19.632 69.8733 19.808C69.4493 19.984 68.9733 20.072 68.4453 20.072ZM75.5889 20.072C74.9729 20.072 74.4209 19.936 73.9329 19.664C73.4529 19.392 73.0729 19.012 72.7929 18.524C72.5129 18.036 72.3729 17.468 72.3729 16.82C72.3729 16.172 72.5129 15.608 72.7929 15.128C73.0729 14.64 73.4529 14.26 73.9329 13.988C74.4209 13.716 74.9729 13.58 75.5889 13.58C76.1249 13.58 76.6089 13.7 77.0409 13.94C77.4729 14.18 77.8169 14.54 78.0729 15.02C78.3369 15.5 78.4689 16.1 78.4689 16.82C78.4689 17.54 78.3409 18.14 78.0849 18.62C77.8369 19.1 77.4969 19.464 77.0649 19.712C76.6329 19.952 76.1409 20.072 75.5889 20.072ZM75.6849 19.064C76.0849 19.064 76.4449 18.972 76.7649 18.788C77.0929 18.604 77.3489 18.344 77.5329 18.008C77.7249 17.664 77.8209 17.268 77.8209 16.82C77.8209 16.364 77.7249 15.972 77.5329 15.644C77.3489 15.308 77.0929 15.048 76.7649 14.864C76.4449 14.68 76.0849 14.588 75.6849 14.588C75.2769 14.588 74.9129 14.68 74.5929 14.864C74.2729 15.048 74.0169 15.308 73.8249 15.644C73.6329 15.972 73.5369 16.364 73.5369 16.82C73.5369 17.268 73.6329 17.664 73.8249 18.008C74.0169 18.344 74.2729 18.604 74.5929 18.788C74.9129 18.972 75.2769 19.064 75.6849 19.064ZM77.8569 20V18.284L77.9289 16.808L77.8089 15.332V11.096H78.9609V20H77.8569ZM81.1406 20V13.64H82.2926V20H81.1406ZM81.7166 12.416C81.4926 12.416 81.3046 12.344 81.1526 12.2C81.0086 12.056 80.9366 11.88 80.9366 11.672C80.9366 11.456 81.0086 11.276 81.1526 11.132C81.3046 10.988 81.4926 10.916 81.7166 10.916C81.9406 10.916 82.1246 10.988 82.2686 11.132C82.4206 11.268 82.4966 11.44 82.4966 11.648C82.4966 11.864 82.4246 12.048 82.2806 12.2C82.1366 12.344 81.9486 12.416 81.7166 12.416ZM87.8882 13.58C88.4082 13.58 88.8642 13.68 89.2562 13.88C89.6562 14.08 89.9682 14.384 90.1922 14.792C90.4162 15.2 90.5282 15.716 90.5282 16.34V20H89.3762V16.472C89.3762 15.856 89.2242 15.392 88.9202 15.08C88.6242 14.768 88.2042 14.612 87.6602 14.612C87.2522 14.612 86.8962 14.692 86.5922 14.852C86.2882 15.012 86.0522 15.248 85.8842 15.56C85.7242 15.872 85.6442 16.26 85.6442 16.724V20H84.4922V13.64H85.5962V15.356L85.4162 14.9C85.6242 14.484 85.9442 14.16 86.3762 13.928C86.8082 13.696 87.3122 13.58 87.8882 13.58Z" fill="white"/>
<path d="M16 9.146C16 8.513 16.526 8 17.175 8H30.825C31.474 8 32 8.513 32 9.146V22.854C32 23.487 31.474 24 30.825 24H17.175C16.526 24 16 23.487 16 22.854V9.146ZM20.943 21.394V14.169H18.542V21.394H20.943ZM19.743 13.182C20.58 13.182 21.101 12.628 21.101 11.934C21.086 11.225 20.581 10.686 19.759 10.686C18.937 10.686 18.4 11.226 18.4 11.934C18.4 12.628 18.921 13.182 19.727 13.182H19.743V13.182ZM24.651 21.394V17.359C24.651 17.143 24.667 16.927 24.731 16.773C24.904 16.342 25.299 15.895 25.963 15.895C26.832 15.895 27.179 16.557 27.179 17.529V21.394H29.58V17.25C29.58 15.03 28.396 13.998 26.816 13.998C25.542 13.998 24.971 14.698 24.651 15.191V15.216H24.635C24.6403 15.2077 24.6456 15.1993 24.651 15.191V14.169H22.251C22.281 14.847 22.251 21.394 22.251 21.394H24.651Z" fill="white"/>
</svg>
