<svg width="121" height="32" viewBox="0 0 121 32" fill="none" xmlns="http://www.w3.org/2000/svg">
<rect width="121" height="32" rx="6" fill="#0168DC"/>
<path d="M40 20V11.6H40.984L44.752 17.948H44.224L47.944 11.6H48.928L48.94 20H47.788L47.776 13.412H48.052L44.74 18.98H44.188L40.852 13.412H41.152V20H40ZM54.1249 20.072C53.4449 20.072 52.8449 19.932 52.3249 19.652C51.8129 19.372 51.4129 18.988 51.1249 18.5C50.8449 18.012 50.7049 17.452 50.7049 16.82C50.7049 16.188 50.8409 15.628 51.1129 15.14C51.3929 14.652 51.7729 14.272 52.2529 14C52.7409 13.72 53.2889 13.58 53.8969 13.58C54.5129 13.58 55.0569 13.716 55.5289 13.988C56.0009 14.26 56.3689 14.644 56.6329 15.14C56.9049 15.628 57.0409 16.2 57.0409 16.856C57.0409 16.904 57.0369 16.96 57.0289 17.024C57.0289 17.088 57.0249 17.148 57.0169 17.204H51.6049V16.376H56.4169L55.9489 16.664C55.9569 16.256 55.8729 15.892 55.6969 15.572C55.5209 15.252 55.2769 15.004 54.9649 14.828C54.6609 14.644 54.3049 14.552 53.8969 14.552C53.4969 14.552 53.1409 14.644 52.8289 14.828C52.5169 15.004 52.2729 15.256 52.0969 15.584C51.9209 15.904 51.8329 16.272 51.8329 16.688V16.88C51.8329 17.304 51.9289 17.684 52.1209 18.02C52.3209 18.348 52.5969 18.604 52.9489 18.788C53.3009 18.972 53.7049 19.064 54.1609 19.064C54.5369 19.064 54.8769 19 55.1809 18.872C55.4929 18.744 55.7649 18.552 55.9969 18.296L56.6329 19.04C56.3449 19.376 55.9849 19.632 55.5529 19.808C55.1289 19.984 54.6529 20.072 54.1249 20.072ZM60.4646 20.072C59.9366 20.072 59.4326 20 58.9526 19.856C58.4806 19.712 58.1086 19.536 57.8366 19.328L58.3166 18.416C58.5886 18.6 58.9246 18.756 59.3246 18.884C59.7246 19.012 60.1326 19.076 60.5486 19.076C61.0846 19.076 61.4686 19 61.7006 18.848C61.9406 18.696 62.0606 18.484 62.0606 18.212C62.0606 18.012 61.9886 17.856 61.8446 17.744C61.7006 17.632 61.5086 17.548 61.2686 17.492C61.0366 17.436 60.7766 17.388 60.4886 17.348C60.2006 17.3 59.9126 17.244 59.6246 17.18C59.3366 17.108 59.0726 17.012 58.8326 16.892C58.5926 16.764 58.4006 16.592 58.2566 16.376C58.1126 16.152 58.0406 15.856 58.0406 15.488C58.0406 15.104 58.1486 14.768 58.3646 14.48C58.5806 14.192 58.8846 13.972 59.2766 13.82C59.6766 13.66 60.1486 13.58 60.6926 13.58C61.1086 13.58 61.5286 13.632 61.9526 13.736C62.3846 13.832 62.7366 13.972 63.0086 14.156L62.5166 15.068C62.2286 14.876 61.9286 14.744 61.6166 14.672C61.3046 14.6 60.9926 14.564 60.6806 14.564C60.1766 14.564 59.8006 14.648 59.5526 14.816C59.3046 14.976 59.1806 15.184 59.1806 15.44C59.1806 15.656 59.2526 15.824 59.3966 15.944C59.5486 16.056 59.7406 16.144 59.9726 16.208C60.2126 16.272 60.4766 16.328 60.7646 16.376C61.0526 16.416 61.3406 16.472 61.6286 16.544C61.9166 16.608 62.1766 16.7 62.4086 16.82C62.6486 16.94 62.8406 17.108 62.9846 17.324C63.1366 17.54 63.2126 17.828 63.2126 18.188C63.2126 18.572 63.1006 18.904 62.8766 19.184C62.6526 19.464 62.3366 19.684 61.9286 19.844C61.5206 19.996 61.0326 20.072 60.4646 20.072ZM66.4763 20.072C65.9483 20.072 65.4443 20 64.9643 19.856C64.4923 19.712 64.1203 19.536 63.8483 19.328L64.3283 18.416C64.6003 18.6 64.9363 18.756 65.3363 18.884C65.7363 19.012 66.1443 19.076 66.5603 19.076C67.0963 19.076 67.4803 19 67.7123 18.848C67.9523 18.696 68.0723 18.484 68.0723 18.212C68.0723 18.012 68.0003 17.856 67.8563 17.744C67.7123 17.632 67.5203 17.548 67.2803 17.492C67.0483 17.436 66.7883 17.388 66.5003 17.348C66.2123 17.3 65.9243 17.244 65.6363 17.18C65.3483 17.108 65.0843 17.012 64.8443 16.892C64.6043 16.764 64.4123 16.592 64.2683 16.376C64.1243 16.152 64.0523 15.856 64.0523 15.488C64.0523 15.104 64.1603 14.768 64.3763 14.48C64.5923 14.192 64.8963 13.972 65.2883 13.82C65.6883 13.66 66.1603 13.58 66.7043 13.58C67.1203 13.58 67.5403 13.632 67.9643 13.736C68.3963 13.832 68.7483 13.972 69.0203 14.156L68.5283 15.068C68.2403 14.876 67.9403 14.744 67.6283 14.672C67.3163 14.6 67.0043 14.564 66.6923 14.564C66.1883 14.564 65.8123 14.648 65.5643 14.816C65.3163 14.976 65.1923 15.184 65.1923 15.44C65.1923 15.656 65.2643 15.824 65.4083 15.944C65.5603 16.056 65.7523 16.144 65.9843 16.208C66.2243 16.272 66.4883 16.328 66.7763 16.376C67.0643 16.416 67.3523 16.472 67.6403 16.544C67.9283 16.608 68.1883 16.7 68.4203 16.82C68.6603 16.94 68.8523 17.108 68.9963 17.324C69.1483 17.54 69.2243 17.828 69.2243 18.188C69.2243 18.572 69.1123 18.904 68.8883 19.184C68.6643 19.464 68.3483 19.684 67.9403 19.844C67.5323 19.996 67.0443 20.072 66.4763 20.072ZM73.496 20.072C72.816 20.072 72.216 19.932 71.696 19.652C71.184 19.372 70.784 18.988 70.496 18.5C70.216 18.012 70.076 17.452 70.076 16.82C70.076 16.188 70.212 15.628 70.484 15.14C70.764 14.652 71.144 14.272 71.624 14C72.112 13.72 72.66 13.58 73.268 13.58C73.884 13.58 74.428 13.716 74.9 13.988C75.372 14.26 75.74 14.644 76.004 15.14C76.276 15.628 76.412 16.2 76.412 16.856C76.412 16.904 76.408 16.96 76.4 17.024C76.4 17.088 76.396 17.148 76.388 17.204H70.976V16.376H75.788L75.32 16.664C75.328 16.256 75.244 15.892 75.068 15.572C74.892 15.252 74.648 15.004 74.336 14.828C74.032 14.644 73.676 14.552 73.268 14.552C72.868 14.552 72.512 14.644 72.2 14.828C71.888 15.004 71.644 15.256 71.468 15.584C71.292 15.904 71.204 16.272 71.204 16.688V16.88C71.204 17.304 71.3 17.684 71.492 18.02C71.692 18.348 71.968 18.604 72.32 18.788C72.672 18.972 73.076 19.064 73.532 19.064C73.908 19.064 74.248 19 74.552 18.872C74.864 18.744 75.136 18.552 75.368 18.296L76.004 19.04C75.716 19.376 75.356 19.632 74.924 19.808C74.5 19.984 74.024 20.072 73.496 20.072ZM81.4077 13.58C81.9277 13.58 82.3837 13.68 82.7757 13.88C83.1757 14.08 83.4877 14.384 83.7117 14.792C83.9357 15.2 84.0477 15.716 84.0477 16.34V20H82.8957V16.472C82.8957 15.856 82.7437 15.392 82.4397 15.08C82.1437 14.768 81.7237 14.612 81.1797 14.612C80.7717 14.612 80.4157 14.692 80.1117 14.852C79.8077 15.012 79.5717 15.248 79.4037 15.56C79.2437 15.872 79.1637 16.26 79.1637 16.724V20H78.0117V13.64H79.1157V15.356L78.9357 14.9C79.1437 14.484 79.4637 14.16 79.8957 13.928C80.3277 13.696 80.8317 13.58 81.4077 13.58ZM88.9636 22.4C88.3796 22.4 87.8116 22.316 87.2596 22.148C86.7156 21.988 86.2716 21.756 85.9276 21.452L86.4796 20.564C86.7756 20.82 87.1396 21.02 87.5716 21.164C88.0036 21.316 88.4556 21.392 88.9276 21.392C89.6796 21.392 90.2316 21.216 90.5836 20.864C90.9356 20.512 91.1116 19.976 91.1116 19.256V17.912L91.2316 16.652L91.1716 15.38V13.64H92.2636V19.136C92.2636 20.256 91.9836 21.08 91.4236 21.608C90.8636 22.136 90.0436 22.4 88.9636 22.4ZM88.8196 19.736C88.2036 19.736 87.6516 19.608 87.1636 19.352C86.6836 19.088 86.2996 18.724 86.0116 18.26C85.7316 17.796 85.5916 17.26 85.5916 16.652C85.5916 16.036 85.7316 15.5 86.0116 15.044C86.2996 14.58 86.6836 14.22 87.1636 13.964C87.6516 13.708 88.2036 13.58 88.8196 13.58C89.3636 13.58 89.8596 13.692 90.3076 13.916C90.7556 14.132 91.1116 14.468 91.3756 14.924C91.6476 15.38 91.7836 15.956 91.7836 16.652C91.7836 17.34 91.6476 17.912 91.3756 18.368C91.1116 18.824 90.7556 19.168 90.3076 19.4C89.8596 19.624 89.3636 19.736 88.8196 19.736ZM88.9516 18.728C89.3756 18.728 89.7516 18.64 90.0796 18.464C90.4076 18.288 90.6636 18.044 90.8476 17.732C91.0396 17.42 91.1356 17.06 91.1356 16.652C91.1356 16.244 91.0396 15.884 90.8476 15.572C90.6636 15.26 90.4076 15.02 90.0796 14.852C89.7516 14.676 89.3756 14.588 88.9516 14.588C88.5276 14.588 88.1476 14.676 87.8116 14.852C87.4836 15.02 87.2236 15.26 87.0316 15.572C86.8476 15.884 86.7556 16.244 86.7556 16.652C86.7556 17.06 86.8476 17.42 87.0316 17.732C87.2236 18.044 87.4836 18.288 87.8116 18.464C88.1476 18.64 88.5276 18.728 88.9516 18.728ZM97.2968 20.072C96.6168 20.072 96.0168 19.932 95.4968 19.652C94.9848 19.372 94.5848 18.988 94.2968 18.5C94.0168 18.012 93.8768 17.452 93.8768 16.82C93.8768 16.188 94.0128 15.628 94.2848 15.14C94.5648 14.652 94.9448 14.272 95.4248 14C95.9128 13.72 96.4608 13.58 97.0688 13.58C97.6848 13.58 98.2288 13.716 98.7008 13.988C99.1728 14.26 99.5408 14.644 99.8048 15.14C100.077 15.628 100.213 16.2 100.213 16.856C100.213 16.904 100.209 16.96 100.201 17.024C100.201 17.088 100.197 17.148 100.189 17.204H94.7768V16.376H99.5888L99.1208 16.664C99.1288 16.256 99.0448 15.892 98.8688 15.572C98.6928 15.252 98.4488 15.004 98.1368 14.828C97.8328 14.644 97.4768 14.552 97.0688 14.552C96.6688 14.552 96.3128 14.644 96.0008 14.828C95.6888 15.004 95.4448 15.256 95.2688 15.584C95.0928 15.904 95.0048 16.272 95.0048 16.688V16.88C95.0048 17.304 95.1008 17.684 95.2928 18.02C95.4928 18.348 95.7688 18.604 96.1208 18.788C96.4728 18.972 96.8768 19.064 97.3328 19.064C97.7088 19.064 98.0488 19 98.3528 18.872C98.6648 18.744 98.9368 18.552 99.1688 18.296L99.8048 19.04C99.5168 19.376 99.1568 19.632 98.7248 19.808C98.3008 19.984 97.8248 20.072 97.2968 20.072ZM101.812 20V13.64H102.916V15.368L102.808 14.936C102.984 14.496 103.28 14.16 103.696 13.928C104.112 13.696 104.624 13.58 105.232 13.58V14.696C105.184 14.688 105.136 14.684 105.088 14.684C105.048 14.684 105.008 14.684 104.968 14.684C104.352 14.684 103.864 14.868 103.504 15.236C103.144 15.604 102.964 16.136 102.964 16.832V20H101.812Z" fill="white"/>
<path d="M16 15.76C16 11.301 19.493 8 24 8C28.507 8 32 11.301 32 15.76C32 20.219 28.507 23.52 24 23.52C23.19 23.52 22.414 23.413 21.684 23.213C21.5425 23.1736 21.3917 23.1842 21.257 23.243L19.669 23.945C19.5731 23.9873 19.4683 24.0054 19.3637 23.9977C19.2592 23.99 19.1581 23.9568 19.0694 23.9009C18.9808 23.845 18.9072 23.7682 18.8551 23.6772C18.8031 23.5862 18.7742 23.4838 18.771 23.379L18.727 21.956C18.724 21.8694 18.7033 21.7843 18.6664 21.7059C18.6294 21.6275 18.5769 21.5575 18.512 21.5C16.956 20.108 16 18.092 16 15.76ZM21.546 14.301L19.196 18.029C18.971 18.387 19.41 18.79 19.747 18.535L22.272 16.619C22.355 16.5559 22.4564 16.5216 22.5607 16.5212C22.665 16.5209 22.7665 16.5545 22.85 16.617L24.719 18.019C24.8516 18.1184 25.0034 18.1893 25.1648 18.2272C25.3261 18.2651 25.4936 18.2691 25.6566 18.2391C25.8196 18.209 25.9746 18.1455 26.1119 18.0525C26.2491 17.9596 26.3656 17.8392 26.454 17.699L28.804 13.971C29.03 13.613 28.59 13.21 28.253 13.465L25.728 15.381C25.645 15.4441 25.5436 15.4784 25.4393 15.4788C25.335 15.4791 25.2335 15.4455 25.15 15.383L23.281 13.98C23.1484 13.8806 22.9966 13.8097 22.8352 13.7718C22.6739 13.7339 22.5064 13.7299 22.3434 13.7599C22.1804 13.79 22.0254 13.8535 21.8881 13.9465C21.7509 14.0394 21.6344 14.1598 21.546 14.3V14.301Z" fill="white"/>
</svg>
