<svg width="98" height="32" viewBox="0 0 98 32" fill="none" xmlns="http://www.w3.org/2000/svg">
<rect width="98" height="32" rx="6" fill="#00678C"/>
<path d="M40 20V11.6H40.984L44.752 17.948H44.224L47.944 11.6H48.928L48.94 20H47.788L47.776 13.412H48.052L44.74 18.98H44.188L40.852 13.412H41.152V20H40ZM51.5689 22.4C51.2649 22.4 50.9689 22.348 50.6809 22.244C50.3929 22.148 50.1449 22.004 49.9369 21.812L50.4289 20.948C50.5889 21.1 50.7649 21.216 50.9569 21.296C51.1489 21.376 51.3529 21.416 51.5689 21.416C51.8489 21.416 52.0809 21.344 52.2649 21.2C52.4489 21.056 52.6209 20.8 52.7809 20.432L53.1769 19.556L53.2969 19.412L55.7929 13.64H56.9209L53.8369 20.636C53.6529 21.084 53.4449 21.436 53.2129 21.692C52.9889 21.948 52.7409 22.128 52.4689 22.232C52.1969 22.344 51.8969 22.4 51.5689 22.4ZM53.0809 20.204L50.1769 13.64H51.3769L53.8489 19.304L53.0809 20.204ZM60.53 20.096C59.89 20.096 59.278 20 58.694 19.808C58.11 19.608 57.65 19.352 57.314 19.04L57.758 18.104C58.078 18.384 58.486 18.616 58.982 18.8C59.478 18.984 59.994 19.076 60.53 19.076C61.018 19.076 61.414 19.02 61.718 18.908C62.022 18.796 62.246 18.644 62.39 18.452C62.534 18.252 62.606 18.028 62.606 17.78C62.606 17.492 62.51 17.26 62.318 17.084C62.134 16.908 61.89 16.768 61.586 16.664C61.29 16.552 60.962 16.456 60.602 16.376C60.242 16.296 59.878 16.204 59.51 16.1C59.15 15.988 58.818 15.848 58.514 15.68C58.218 15.512 57.978 15.288 57.794 15.008C57.61 14.72 57.518 14.352 57.518 13.904C57.518 13.472 57.63 13.076 57.854 12.716C58.086 12.348 58.438 12.056 58.91 11.84C59.39 11.616 59.998 11.504 60.734 11.504C61.222 11.504 61.706 11.568 62.186 11.696C62.666 11.824 63.082 12.008 63.434 12.248L63.038 13.208C62.678 12.968 62.298 12.796 61.898 12.692C61.498 12.58 61.11 12.524 60.734 12.524C60.262 12.524 59.874 12.584 59.57 12.704C59.266 12.824 59.042 12.984 58.898 13.184C58.762 13.384 58.694 13.608 58.694 13.856C58.694 14.152 58.786 14.388 58.97 14.564C59.162 14.74 59.406 14.88 59.702 14.984C60.006 15.088 60.338 15.184 60.698 15.272C61.058 15.352 61.418 15.444 61.778 15.548C62.146 15.652 62.478 15.788 62.774 15.956C63.078 16.124 63.322 16.348 63.506 16.628C63.69 16.908 63.782 17.268 63.782 17.708C63.782 18.132 63.666 18.528 63.434 18.896C63.202 19.256 62.842 19.548 62.354 19.772C61.874 19.988 61.266 20.096 60.53 20.096ZM69.3271 20.096C68.6871 20.096 68.0911 19.988 67.5391 19.772C66.9951 19.556 66.5231 19.256 66.1231 18.872C65.7231 18.48 65.4111 18.024 65.1871 17.504C64.9631 16.984 64.8511 16.416 64.8511 15.8C64.8511 15.184 64.9631 14.616 65.1871 14.096C65.4111 13.576 65.7231 13.124 66.1231 12.74C66.5231 12.348 66.9951 12.044 67.5391 11.828C68.0831 11.612 68.6791 11.504 69.3271 11.504C69.9671 11.504 70.5551 11.612 71.0911 11.828C71.6351 12.036 72.1071 12.336 72.5071 12.728C72.9151 13.112 73.2271 13.564 73.4431 14.084C73.6671 14.604 73.7791 15.176 73.7791 15.8C73.7791 16.424 73.6671 16.996 73.4431 17.516C73.2271 18.036 72.9151 18.492 72.5071 18.884C72.1071 19.268 71.6351 19.568 71.0911 19.784C70.5551 19.992 69.9671 20.096 69.3271 20.096ZM72.0751 21.752C71.7951 21.752 71.5271 21.716 71.2711 21.644C71.0151 21.58 70.7591 21.472 70.5031 21.32C70.2471 21.176 69.9831 20.984 69.7111 20.744C69.4391 20.512 69.1431 20.224 68.8231 19.88L70.1071 19.544C70.3471 19.84 70.5751 20.08 70.7911 20.264C71.0151 20.456 71.2351 20.592 71.4511 20.672C71.6671 20.76 71.8791 20.804 72.0871 20.804C72.6871 20.804 73.1991 20.564 73.6231 20.084L74.1871 20.768C73.6431 21.424 72.9391 21.752 72.0751 21.752ZM69.3271 19.028C69.7911 19.028 70.2191 18.948 70.6111 18.788C71.0111 18.628 71.3551 18.4 71.6431 18.104C71.9391 17.808 72.1671 17.464 72.3271 17.072C72.4951 16.68 72.5791 16.256 72.5791 15.8C72.5791 15.336 72.4951 14.908 72.3271 14.516C72.1671 14.124 71.9391 13.784 71.6431 13.496C71.3551 13.2 71.0111 12.972 70.6111 12.812C70.2191 12.652 69.7911 12.572 69.3271 12.572C68.8551 12.572 68.4191 12.652 68.0191 12.812C67.6271 12.972 67.2831 13.2 66.9871 13.496C66.6911 13.784 66.4591 14.124 66.2911 14.516C66.1311 14.908 66.0511 15.336 66.0511 15.8C66.0511 16.256 66.1311 16.68 66.2911 17.072C66.4591 17.464 66.6911 17.808 66.9871 18.104C67.2831 18.4 67.6271 18.628 68.0191 18.788C68.4191 18.948 68.8551 19.028 69.3271 19.028ZM75.6133 20V11.6H76.8133V18.956H81.3613V20H75.6133Z" fill="white"/>
<path fill-rule="evenodd" clip-rule="evenodd" d="M30.7376 20.0768C29.8673 20.0526 29.1921 20.1418 28.6262 20.3798C28.4632 20.4453 28.2017 20.4453 28.1802 20.6504C28.2673 20.7364 28.2778 20.8773 28.3542 20.9965C28.4847 21.213 28.7135 21.5047 28.9201 21.6559L29.6165 22.1536C30.041 22.413 30.5198 22.5645 30.9333 22.8242C31.1728 22.9757 31.4121 23.1703 31.6517 23.3328C31.7736 23.4193 31.8475 23.5602 32 23.614V23.5812C31.9239 23.4843 31.9019 23.3437 31.8261 23.2351L31.4992 22.9216C31.1838 22.4998 30.7918 22.1318 30.3674 21.8293C30.019 21.5912 29.2575 21.2668 29.116 20.8668L29.0945 20.8426C29.3336 20.8184 29.6165 20.7342 29.8453 20.6693C30.2156 20.5723 30.5527 20.5936 30.9333 20.4964L31.456 20.3449V20.2479C31.2601 20.0533 31.1187 19.7936 30.9121 19.6099C30.3571 19.134 29.7473 18.6688 29.116 18.2795C28.7786 18.0632 28.3432 17.9224 27.9841 17.7389C27.8531 17.6739 27.6358 17.6414 27.5597 17.5333C27.3633 17.2957 27.2548 16.9818 27.1133 16.7003L26.221 14.8184C26.0251 14.3966 25.9051 13.9748 25.666 13.5855C24.5449 11.7467 23.3257 10.6328 21.4538 9.54018C21.0513 9.31304 20.5724 9.21534 20.0633 9.09655L19.2471 9.05292C19.0727 8.97728 18.8988 8.77171 18.7463 8.67425C18.126 8.28492 16.5261 7.4413 16.0687 8.55304C15.7748 9.25607 16.5041 9.94818 16.7517 10.3053C16.9371 10.554 17.1761 10.8352 17.3071 11.1164C17.3803 11.3002 17.4047 11.4951 17.4811 11.6897C17.655 12.1656 17.8184 12.6958 18.047 13.1394C18.169 13.3666 18.297 13.6049 18.4495 13.8102C18.5366 13.9314 18.689 13.9833 18.7215 14.178C18.569 14.3944 18.5585 14.7186 18.4714 14.9893C18.0794 16.2116 18.2319 17.7258 18.7868 18.6257C18.9613 18.896 19.3723 19.4911 19.9299 19.2637C20.4197 19.069 20.3105 18.4526 20.4519 17.9117C20.4849 17.782 20.4629 17.6955 20.528 17.6087V17.6329L20.9744 18.5306C21.3118 19.0606 21.8997 19.6123 22.3893 19.9803C22.6503 20.175 22.8571 20.5105 23.1835 20.6293V20.5965H23.162C23.0967 20.4996 22.9986 20.4559 22.9115 20.3803C22.7156 20.1856 22.4981 19.9476 22.3456 19.7313C21.8887 19.1258 21.4862 18.455 21.1269 17.7629C20.9525 17.4276 20.8 17.0599 20.659 16.7246C20.5932 16.5947 20.5932 16.3997 20.4846 16.3353C20.3212 16.5728 20.0821 16.7789 19.9619 17.0708C19.755 17.5357 19.7335 18.1091 19.6574 18.704C19.6135 18.7149 19.6331 18.704 19.6135 18.7282C19.2657 18.6419 19.1457 18.2846 19.0152 17.982C18.6888 17.214 18.6341 15.9811 18.9171 15.0941C18.9932 14.8669 19.3201 14.153 19.1896 13.9367C19.1237 13.7312 18.9066 13.6124 18.7866 13.45C18.6451 13.2444 18.4931 12.985 18.3951 12.7578C18.1341 12.1518 18.0036 11.4815 17.7204 10.8757C17.5894 10.5945 17.3611 10.3024 17.1759 10.043C16.9691 9.75085 16.741 9.54527 16.5775 9.19934C16.5231 9.07813 16.447 8.88565 16.5341 8.75571C16.5556 8.66916 16.5995 8.6345 16.6861 8.6151C16.8276 8.49389 17.2305 8.64759 17.372 8.71207C17.7745 8.87449 18.1119 9.02577 18.4492 9.25267C18.6017 9.36079 18.7651 9.56637 18.961 9.62067H19.1898C19.5382 9.6963 19.9297 9.64491 20.2558 9.74188C20.8327 9.92612 21.355 10.1962 21.8233 10.4885C23.2489 11.3862 24.4246 12.6626 25.2189 14.1879C25.3494 14.4366 25.4038 14.6638 25.5238 14.9234C25.7526 15.4536 26.0356 15.9942 26.2637 16.5137C26.4925 17.022 26.7101 17.5416 27.0364 17.9634C27.1999 18.1905 27.8526 18.3093 28.1463 18.4283C28.3642 18.5253 28.7013 18.6126 28.8977 18.7314C29.2675 18.9585 29.6375 19.2181 29.9856 19.4669C30.1595 19.5963 30.704 19.8669 30.7364 20.0826L30.7376 20.0768ZM19.6387 10.6776C19.4883 10.6763 19.3384 10.6945 19.1927 10.7317V10.7559H19.2142C19.3013 10.929 19.4538 11.048 19.5626 11.1996L19.8131 11.7188L19.8345 11.6946C19.987 11.5865 20.0633 11.4134 20.0633 11.154C19.998 11.0783 19.9872 11.0025 19.9328 10.9268C19.8675 10.8187 19.726 10.7644 19.6387 10.6781V10.6776Z" fill="white"/>
</svg>
