<svg width="81" height="32" viewBox="0 0 81 32" fill="none" xmlns="http://www.w3.org/2000/svg">
<rect width="81" height="32" rx="6" fill="#777BB3"/>
<path d="M40 20V11.6H43.276C44.012 11.6 44.64 11.716 45.16 11.948C45.68 12.18 46.08 12.516 46.36 12.956C46.64 13.396 46.78 13.92 46.78 14.528C46.78 15.136 46.64 15.66 46.36 16.1C46.08 16.532 45.68 16.868 45.16 17.108C44.64 17.34 44.012 17.456 43.276 17.456H40.66L41.2 16.892V20H40ZM41.2 17.012L40.66 16.412H43.24C44.008 16.412 44.588 16.248 44.98 15.92C45.38 15.592 45.58 15.128 45.58 14.528C45.58 13.928 45.38 13.464 44.98 13.136C44.588 12.808 44.008 12.644 43.24 12.644H40.66L41.2 12.044V17.012ZM54.567 11.6H55.767V20H54.567V11.6ZM49.743 20H48.543V11.6H49.743V20ZM54.675 16.256H49.623V15.212H54.675V16.256ZM58.2812 20V11.6H61.5572C62.2932 11.6 62.9212 11.716 63.4412 11.948C63.9612 12.18 64.3612 12.516 64.6412 12.956C64.9212 13.396 65.0612 13.92 65.0612 14.528C65.0612 15.136 64.9212 15.66 64.6412 16.1C64.3612 16.532 63.9612 16.868 63.4412 17.108C62.9212 17.34 62.2932 17.456 61.5572 17.456H58.9412L59.4812 16.892V20H58.2812ZM59.4812 17.012L58.9412 16.412H61.5212C62.2892 16.412 62.8692 16.248 63.2612 15.92C63.6612 15.592 63.8612 15.128 63.8612 14.528C63.8612 13.928 63.6612 13.464 63.2612 13.136C62.8692 12.808 62.2892 12.644 61.5212 12.644H58.9412L59.4812 12.044V17.012Z" fill="white"/>
<path d="M16 15.7917C16 18.1159 19.5818 20 24 20C28.4182 20 32 18.1159 32 15.7917C32 13.4676 28.4182 11.5834 24 11.5834C19.5818 11.5834 16 13.4676 16 15.7917Z" fill="white"/>
<path d="M20.3465 16.2747C20.6956 16.2747 20.9562 16.2103 21.1211 16.0834C21.2842 15.9578 21.3969 15.7402 21.456 15.4366C21.511 15.1529 21.49 14.9548 21.3936 14.8478C21.2951 14.7386 21.0819 14.6833 20.7602 14.6833H20.2023L19.893 16.2747H20.3465ZM18.5217 18.235C18.4958 18.235 18.4712 18.2235 18.4548 18.2034C18.4383 18.1835 18.4316 18.1571 18.4365 18.1317L19.2562 13.9144C19.2642 13.8736 19.2999 13.8441 19.3414 13.8441H21.108C21.6632 13.8441 22.0765 13.9949 22.3363 14.2923C22.5974 14.5912 22.678 15.009 22.5759 15.5342C22.5344 15.7481 22.4629 15.9468 22.3635 16.1247C22.264 16.3028 22.1325 16.4676 21.9726 16.6146C21.7811 16.7938 21.5645 16.9237 21.3292 17.0001C21.0976 17.0756 20.8002 17.1138 20.4453 17.1138H19.7299L19.5256 18.1648C19.5177 18.2056 19.482 18.235 19.4405 18.235H18.5217Z" fill="#777BB3"/>
<path d="M20.2738 14.7701H20.7602C21.1485 14.7701 21.2834 14.8553 21.3292 14.9061C21.4053 14.9904 21.4196 15.1682 21.3707 15.4202C21.3158 15.7023 21.214 15.9023 21.0681 16.0146C20.9188 16.1296 20.676 16.1879 20.3465 16.1879H19.9983L20.2738 14.7701ZM21.108 13.7574H19.3414C19.2583 13.7574 19.1869 13.8163 19.171 13.8978L18.3513 18.1152C18.3414 18.1661 18.3548 18.2187 18.3878 18.2587C18.4208 18.2987 18.4699 18.3219 18.5217 18.3219H19.4404C19.5236 18.3219 19.595 18.263 19.6109 18.1814L19.8015 17.2006H20.4453C20.8093 17.2006 21.1158 17.1609 21.3561 17.0827C21.6032 17.0024 21.8306 16.8662 22.0319 16.678C22.1983 16.5249 22.3354 16.353 22.4393 16.1671C22.5432 15.9812 22.6178 15.7738 22.6611 15.5508C22.7686 14.998 22.6813 14.5553 22.4016 14.2352C22.1247 13.9181 21.6894 13.7574 21.108 13.7574ZM19.7876 16.3615H20.3465C20.7169 16.3615 20.9928 16.2918 21.174 16.1522C21.3554 16.0126 21.4776 15.7797 21.5412 15.4532C21.602 15.1398 21.5743 14.9186 21.4581 14.7898C21.3418 14.6609 21.1092 14.5965 20.7602 14.5965H20.1307L19.7876 16.3615M21.108 13.931C21.6395 13.931 22.0272 14.0704 22.2709 14.3494C22.5146 14.6284 22.5879 15.0177 22.4907 15.5176C22.4507 15.7236 22.383 15.9119 22.2877 16.0824C22.1923 16.2531 22.0678 16.4092 21.9138 16.5507C21.7304 16.7224 21.5266 16.8447 21.3023 16.9176C21.0781 16.9907 20.7925 17.027 20.4453 17.027H19.6583L19.4404 18.1483H18.5217L19.3414 13.931H21.108" fill="white"/>
<path d="M24.6824 17.1138C24.6564 17.1138 24.6319 17.1023 24.6154 17.0822C24.5989 17.0622 24.5922 17.0359 24.5971 17.0105L24.9597 15.1445C24.9942 14.967 24.9857 14.8396 24.9358 14.7858C24.9052 14.7529 24.8135 14.6977 24.5421 14.6977H23.8852L23.4293 17.0436C23.4214 17.0844 23.3857 17.1138 23.3441 17.1138H22.4327C22.4067 17.1138 22.3822 17.1023 22.3657 17.0822C22.3492 17.0622 22.3425 17.0359 22.3474 17.0105L23.1671 12.7931C23.175 12.7524 23.2108 12.7229 23.2523 12.7229H24.1638C24.1897 12.7229 24.2143 12.7345 24.2308 12.7545C24.2473 12.7745 24.2539 12.8008 24.249 12.8263L24.0512 13.8442H24.7578C25.2962 13.8442 25.6612 13.9391 25.8738 14.1343C26.0906 14.3335 26.1582 14.652 26.0749 15.0811L25.6935 17.0436C25.6856 17.0844 25.6499 17.1138 25.6083 17.1138H24.6824Z" fill="#777BB3"/>
<path d="M24.1638 12.6361H23.2523C23.1692 12.6361 23.0978 12.695 23.0819 12.7766L22.2622 16.9939C22.2523 17.0448 22.2657 17.0974 22.2987 17.1375C22.3317 17.1775 22.3808 17.2006 22.4327 17.2006H23.3441C23.4272 17.2006 23.4987 17.1417 23.5145 17.0601L23.9568 14.7845H24.5421C24.813 14.7845 24.8699 14.8424 24.8721 14.8449C24.8886 14.8626 24.9102 14.9445 24.8745 15.1279L24.5119 16.9939C24.502 17.0448 24.5154 17.0974 24.5484 17.1375C24.5814 17.1775 24.6305 17.2006 24.6824 17.2006H25.6083C25.6914 17.2006 25.7629 17.1417 25.7787 17.0601L26.16 15.0976C26.2495 14.6369 26.173 14.2914 25.9326 14.0704C25.7032 13.8597 25.3189 13.7573 24.7579 13.7573H24.1565L24.3342 12.8428C24.3441 12.7919 24.3307 12.7393 24.2978 12.6993C24.2648 12.6593 24.2156 12.6361 24.1638 12.6361ZM24.1638 12.8097L23.9459 13.931H24.7579C25.2688 13.931 25.6212 14.0201 25.8151 14.1983C26.0091 14.3765 26.0672 14.6653 25.9897 15.0645L25.6083 17.027H24.6824L25.0449 15.161C25.0862 14.9488 25.071 14.804 24.9994 14.7268C24.9277 14.6496 24.7753 14.6109 24.5421 14.6109H23.8136L23.3441 17.027H22.4327L23.2523 12.8097H24.1638Z" fill="white"/>
<path d="M27.517 16.2747C27.8661 16.2747 28.1268 16.2103 28.2917 16.0834C28.4548 15.9578 28.5675 15.7402 28.6266 15.4366C28.6816 15.1529 28.6606 14.9548 28.5642 14.8478C28.4656 14.7386 28.2525 14.6833 27.9307 14.6833H27.3728L27.0635 16.2747H27.517ZM25.6923 18.235C25.6664 18.235 25.6418 18.2235 25.6254 18.2034C25.6089 18.1835 25.6022 18.1571 25.6071 18.1317L26.4268 13.9144C26.4348 13.8736 26.4705 13.8441 26.512 13.8441H28.2786C28.8339 13.8441 29.2471 13.9949 29.5069 14.2923C29.768 14.5912 29.8486 15.009 29.7465 15.5342C29.7049 15.7481 29.6335 15.9468 29.5341 16.1247C29.4346 16.3028 29.3031 16.4676 29.1431 16.6146C28.9517 16.7938 28.735 16.9237 28.4997 17.0001C28.2682 17.0756 27.9708 17.1138 27.6158 17.1138H26.9005L26.6963 18.1648C26.6883 18.2056 26.6526 18.235 26.611 18.235H25.6923Z" fill="#777BB3"/>
<path d="M27.4444 14.7701H27.9307C28.3191 14.7701 28.454 14.8553 28.4998 14.906C28.5759 14.9904 28.5902 15.1681 28.5413 15.4201C28.4864 15.7023 28.3846 15.9023 28.2387 16.0146C28.0894 16.1296 27.8465 16.1879 27.5171 16.1879H27.1689L27.4444 14.7701ZM28.2786 13.7573H26.512C26.4289 13.7573 26.3575 13.8162 26.3416 13.8978L25.5219 18.1151C25.5121 18.166 25.5254 18.2187 25.5584 18.2587C25.5914 18.2987 25.6405 18.3218 25.6923 18.3218H26.611C26.6941 18.3218 26.7656 18.2629 26.7815 18.1814L26.9721 17.2006H27.6158C27.9799 17.2006 28.2864 17.1609 28.5267 17.0826C28.7738 17.0023 29.0013 16.8662 29.2025 16.6779C29.3689 16.5249 29.506 16.353 29.6098 16.1671C29.7138 15.9811 29.7884 15.7738 29.8317 15.5507C29.9392 14.9979 29.8519 14.5553 29.5722 14.2351C29.2952 13.9181 28.86 13.7573 28.2786 13.7573ZM26.9583 16.3615H27.5171C27.8875 16.3615 28.1633 16.2917 28.3446 16.1522C28.526 16.0126 28.6482 15.7796 28.7118 15.4532C28.7726 15.1398 28.7449 14.9186 28.6287 14.7897C28.5124 14.6609 28.2798 14.5964 27.9307 14.5964H27.3013L26.9583 16.3615ZM28.2786 13.9309C28.8101 13.9309 29.1978 14.0704 29.4415 14.3494C29.6852 14.6283 29.7585 15.0177 29.6613 15.5176C29.6213 15.7236 29.5536 15.9118 29.4583 16.0824C29.3629 16.2531 29.2383 16.4092 29.0844 16.5507C28.901 16.7224 28.6972 16.8447 28.4729 16.9176C28.2487 16.9906 27.9631 17.027 27.6158 17.027H26.8289L26.611 18.1482H25.6923L26.512 13.9309H28.2786" fill="white"/>
</svg>
