<svg width="93" height="32" viewBox="0 0 93 32" fill="none" xmlns="http://www.w3.org/2000/svg">
<rect x="0.5" y="0.5" width="92" height="31" rx="5.5" fill="black" stroke="#24292F"/>
<path d="M41.878 20V12.644H38.998V11.6H45.946V12.644H43.066V20H41.878ZM47.085 20V13.64H48.237V20H47.085ZM47.661 12.416C47.437 12.416 47.249 12.344 47.097 12.2C46.953 12.056 46.881 11.88 46.881 11.672C46.881 11.456 46.953 11.276 47.097 11.132C47.249 10.988 47.437 10.916 47.661 10.916C47.885 10.916 48.069 10.988 48.213 11.132C48.365 11.268 48.441 11.44 48.441 11.648C48.441 11.864 48.369 12.048 48.225 12.2C48.081 12.344 47.893 12.416 47.661 12.416ZM51.3725 18.464L51.3965 16.988L55.0565 13.64H56.4485L53.6405 16.4L53.0165 16.928L51.3725 18.464ZM50.4365 20V11.096H51.5885V20H50.4365ZM55.2965 20L52.8005 16.904L53.5445 15.98L56.7125 20H55.2965ZM60.0151 20.072C59.3751 20.072 58.8791 19.9 58.5271 19.556C58.1751 19.212 57.9991 18.72 57.9991 18.08V12.248H59.1511V18.032C59.1511 18.376 59.2351 18.64 59.4031 18.824C59.5791 19.008 59.8271 19.1 60.1471 19.1C60.5071 19.1 60.8071 19 61.0471 18.8L61.4071 19.628C61.2311 19.78 61.0191 19.892 60.7711 19.964C60.5311 20.036 60.2791 20.072 60.0151 20.072ZM56.9191 14.588V13.64H60.9751V14.588H56.9191ZM65.3129 20.072C64.6729 20.072 64.1049 19.932 63.6089 19.652C63.1129 19.372 62.7209 18.988 62.4329 18.5C62.1449 18.004 62.0009 17.444 62.0009 16.82C62.0009 16.188 62.1449 15.628 62.4329 15.14C62.7209 14.652 63.1129 14.272 63.6089 14C64.1049 13.72 64.6729 13.58 65.3129 13.58C65.9449 13.58 66.5089 13.72 67.0049 14C67.5089 14.272 67.9009 14.652 68.1809 15.14C68.4689 15.62 68.6129 16.18 68.6129 16.82C68.6129 17.452 68.4689 18.012 68.1809 18.5C67.9009 18.988 67.5089 19.372 67.0049 19.652C66.5089 19.932 65.9449 20.072 65.3129 20.072ZM65.3129 19.064C65.7209 19.064 66.0849 18.972 66.4049 18.788C66.7329 18.604 66.9889 18.344 67.1729 18.008C67.3569 17.664 67.4489 17.268 67.4489 16.82C67.4489 16.364 67.3569 15.972 67.1729 15.644C66.9889 15.308 66.7329 15.048 66.4049 14.864C66.0849 14.68 65.7209 14.588 65.3129 14.588C64.9049 14.588 64.5409 14.68 64.2209 14.864C63.9009 15.048 63.6449 15.308 63.4529 15.644C63.2609 15.972 63.1649 16.364 63.1649 16.82C63.1649 17.268 63.2609 17.664 63.4529 18.008C63.6449 18.344 63.9009 18.604 64.2209 18.788C64.5409 18.972 64.9049 19.064 65.3129 19.064ZM71.1421 18.464L71.1661 16.988L74.8261 13.64H76.2181L73.4101 16.4L72.7861 16.928L71.1421 18.464ZM70.2061 20V11.096H71.3581V20H70.2061ZM75.0661 20L72.5701 16.904L73.3141 15.98L76.4821 20H75.0661Z" fill="white"/>
<path d="M25 8H26.98C27.124 8.715 27.52 9.617 28.215 10.512C28.895 11.389 29.797 12 31 12V14C29.247 14 27.93 13.186 27 12.171V19C27 19.9889 26.7068 20.9556 26.1573 21.7779C25.6079 22.6001 24.8271 23.241 23.9134 23.6194C22.9998 23.9978 21.9945 24.0969 21.0246 23.9039C20.0546 23.711 19.1637 23.2348 18.4645 22.5355C17.7652 21.8363 17.289 20.9454 17.0961 19.9755C16.9031 19.0055 17.0022 18.0002 17.3806 17.0866C17.759 16.173 18.3999 15.3921 19.2222 14.8427C20.0444 14.2932 21.0111 14 22 14V16C21.4067 16 20.8266 16.1759 20.3333 16.5056C19.8399 16.8352 19.4554 17.3038 19.2284 17.8519C19.0013 18.4001 18.9419 19.0033 19.0576 19.5853C19.1734 20.1672 19.4591 20.7018 19.8787 21.1213C20.2982 21.5409 20.8328 21.8266 21.4147 21.9424C21.9967 22.0581 22.5999 21.9987 23.1481 21.7716C23.6962 21.5446 24.1648 21.1601 24.4944 20.6667C24.8241 20.1734 25 19.5933 25 19V8Z" fill="white"/>
</svg>
