<svg width="92" height="32" viewBox="0 0 92 32" fill="none" xmlns="http://www.w3.org/2000/svg">
<rect x="0.5" y="0.5" width="91" height="31" rx="5.5" fill="black" stroke="#24292F"/>
<path d="M40.878 20V12.644H37.998V11.6H44.946V12.644H42.066V20H40.878ZM46.085 20V13.64H47.237V20H46.085ZM46.661 12.416C46.437 12.416 46.249 12.344 46.097 12.2C45.953 12.056 45.881 11.88 45.881 11.672C45.881 11.456 45.953 11.276 46.097 11.132C46.249 10.988 46.437 10.916 46.661 10.916C46.885 10.916 47.069 10.988 47.213 11.132C47.365 11.268 47.441 11.44 47.441 11.648C47.441 11.864 47.369 12.048 47.225 12.2C47.081 12.344 46.893 12.416 46.661 12.416ZM50.3725 18.464L50.3965 16.988L54.0565 13.64H55.4485L52.6405 16.4L52.0165 16.928L50.3725 18.464ZM49.4365 20V11.096H50.5885V20H49.4365ZM54.2965 20L51.8005 16.904L52.5445 15.98L55.7125 20H54.2965ZM59.0151 20.072C58.3751 20.072 57.8791 19.9 57.5271 19.556C57.1751 19.212 56.9991 18.72 56.9991 18.08V12.248H58.1511V18.032C58.1511 18.376 58.2351 18.64 58.4031 18.824C58.5791 19.008 58.8271 19.1 59.1471 19.1C59.5071 19.1 59.8071 19 60.0471 18.8L60.4071 19.628C60.2311 19.78 60.0191 19.892 59.7711 19.964C59.5311 20.036 59.2791 20.072 59.0151 20.072ZM55.9191 14.588V13.64H59.9751V14.588H55.9191ZM64.3129 20.072C63.6729 20.072 63.1049 19.932 62.6089 19.652C62.1129 19.372 61.7209 18.988 61.4329 18.5C61.1449 18.004 61.0009 17.444 61.0009 16.82C61.0009 16.188 61.1449 15.628 61.4329 15.14C61.7209 14.652 62.1129 14.272 62.6089 14C63.1049 13.72 63.6729 13.58 64.3129 13.58C64.9449 13.58 65.5089 13.72 66.0049 14C66.5089 14.272 66.9009 14.652 67.1809 15.14C67.4689 15.62 67.6129 16.18 67.6129 16.82C67.6129 17.452 67.4689 18.012 67.1809 18.5C66.9009 18.988 66.5089 19.372 66.0049 19.652C65.5089 19.932 64.9449 20.072 64.3129 20.072ZM64.3129 19.064C64.7209 19.064 65.0849 18.972 65.4049 18.788C65.7329 18.604 65.9889 18.344 66.1729 18.008C66.3569 17.664 66.4489 17.268 66.4489 16.82C66.4489 16.364 66.3569 15.972 66.1729 15.644C65.9889 15.308 65.7329 15.048 65.4049 14.864C65.0849 14.68 64.7209 14.588 64.3129 14.588C63.9049 14.588 63.5409 14.68 63.2209 14.864C62.9009 15.048 62.6449 15.308 62.4529 15.644C62.2609 15.972 62.1649 16.364 62.1649 16.82C62.1649 17.268 62.2609 17.664 62.4529 18.008C62.6449 18.344 62.9009 18.604 63.2209 18.788C63.5409 18.972 63.9049 19.064 64.3129 19.064ZM70.1421 18.464L70.1661 16.988L73.8261 13.64H75.2181L72.4101 16.4L71.7861 16.928L70.1421 18.464ZM69.2061 20V11.096H70.3581V20H69.2061ZM74.0661 20L71.5701 16.904L72.3141 15.98L75.4821 20H74.0661Z" fill="white"/>
<path d="M24 8H25.98C26.124 8.715 26.52 9.617 27.215 10.512C27.895 11.389 28.797 12 30 12V14C28.247 14 26.93 13.186 26 12.171V19C26 19.9889 25.7068 20.9556 25.1573 21.7779C24.6079 22.6001 23.8271 23.241 22.9134 23.6194C21.9998 23.9978 20.9945 24.0969 20.0246 23.9039C19.0546 23.711 18.1637 23.2348 17.4645 22.5355C16.7652 21.8363 16.289 20.9454 16.0961 19.9755C15.9031 19.0055 16.0022 18.0002 16.3806 17.0866C16.759 16.173 17.3999 15.3921 18.2222 14.8427C19.0444 14.2932 20.0111 14 21 14V16C20.4067 16 19.8266 16.1759 19.3333 16.5056C18.8399 16.8352 18.4554 17.3038 18.2284 17.8519C18.0013 18.4001 17.9419 19.0033 18.0576 19.5853C18.1734 20.1672 18.4591 20.7018 18.8787 21.1213C19.2982 21.5409 19.8328 21.8266 20.4147 21.9424C20.9967 22.0581 21.5999 21.9987 22.1481 21.7716C22.6962 21.5446 23.1648 21.1601 23.4944 20.6667C23.8241 20.1734 24 19.5933 24 19V8Z" fill="white"/>
</svg>
