<svg width="98" height="32" viewBox="0 0 98 32" fill="none" xmlns="http://www.w3.org/2000/svg">
<rect width="98" height="32" rx="6" fill="#1C96E9"/>
<path d="M42.878 20V12.644H39.998V11.6H46.946V12.644H44.066V20H42.878ZM49.0305 20L46.6665 13.64H47.7585L49.8585 19.4H49.3425L51.5265 13.64H52.4985L54.6345 19.4H54.1305L56.2785 13.64H57.3105L54.9345 20H53.8305L51.8265 14.744H52.1625L50.1345 20H49.0305ZM58.4795 20V13.64H59.6315V20H58.4795ZM59.0555 12.416C58.8315 12.416 58.6435 12.344 58.4915 12.2C58.3475 12.056 58.2755 11.88 58.2755 11.672C58.2755 11.456 58.3475 11.276 58.4915 11.132C58.6435 10.988 58.8315 10.916 59.0555 10.916C59.2795 10.916 59.4635 10.988 59.6075 11.132C59.7595 11.268 59.8355 11.44 59.8355 11.648C59.8355 11.864 59.7635 12.048 59.6195 12.2C59.4755 12.344 59.2875 12.416 59.0555 12.416ZM64.0151 20.072C63.3751 20.072 62.8791 19.9 62.5271 19.556C62.1751 19.212 61.9991 18.72 61.9991 18.08V12.248H63.1511V18.032C63.1511 18.376 63.2351 18.64 63.4031 18.824C63.5791 19.008 63.8271 19.1 64.1471 19.1C64.5071 19.1 64.8071 19 65.0471 18.8L65.4071 19.628C65.2311 19.78 65.0191 19.892 64.7711 19.964C64.5311 20.036 64.2791 20.072 64.0151 20.072ZM60.9191 14.588V13.64H64.9751V14.588H60.9191ZM68.8315 20.072C68.1915 20.072 67.6955 19.9 67.3435 19.556C66.9915 19.212 66.8155 18.72 66.8155 18.08V12.248H67.9675V18.032C67.9675 18.376 68.0515 18.64 68.2195 18.824C68.3955 19.008 68.6435 19.1 68.9635 19.1C69.3235 19.1 69.6235 19 69.8635 18.8L70.2235 19.628C70.0475 19.78 69.8355 19.892 69.5875 19.964C69.3475 20.036 69.0955 20.072 68.8315 20.072ZM65.7355 14.588V13.64H69.7915V14.588H65.7355ZM74.2373 20.072C73.5573 20.072 72.9573 19.932 72.4373 19.652C71.9253 19.372 71.5253 18.988 71.2373 18.5C70.9573 18.012 70.8173 17.452 70.8173 16.82C70.8173 16.188 70.9533 15.628 71.2253 15.14C71.5053 14.652 71.8853 14.272 72.3653 14C72.8533 13.72 73.4013 13.58 74.0093 13.58C74.6253 13.58 75.1693 13.716 75.6413 13.988C76.1133 14.26 76.4813 14.644 76.7453 15.14C77.0173 15.628 77.1533 16.2 77.1533 16.856C77.1533 16.904 77.1493 16.96 77.1413 17.024C77.1413 17.088 77.1373 17.148 77.1293 17.204H71.7173V16.376H76.5293L76.0613 16.664C76.0693 16.256 75.9853 15.892 75.8093 15.572C75.6333 15.252 75.3893 15.004 75.0773 14.828C74.7733 14.644 74.4173 14.552 74.0093 14.552C73.6093 14.552 73.2533 14.644 72.9413 14.828C72.6293 15.004 72.3853 15.256 72.2093 15.584C72.0333 15.904 71.9453 16.272 71.9453 16.688V16.88C71.9453 17.304 72.0413 17.684 72.2333 18.02C72.4333 18.348 72.7093 18.604 73.0613 18.788C73.4133 18.972 73.8173 19.064 74.2733 19.064C74.6493 19.064 74.9893 19 75.2933 18.872C75.6053 18.744 75.8773 18.552 76.1093 18.296L76.7453 19.04C76.4573 19.376 76.0973 19.632 75.6653 19.808C75.2413 19.984 74.7653 20.072 74.2373 20.072ZM78.7529 20V13.64H79.8569V15.368L79.7489 14.936C79.9249 14.496 80.2209 14.16 80.6369 13.928C81.0529 13.696 81.5649 13.58 82.1729 13.58V14.696C82.1249 14.688 82.0769 14.684 82.0289 14.684C81.9889 14.684 81.9489 14.684 81.9089 14.684C81.2929 14.684 80.8049 14.868 80.4449 15.236C80.0849 15.604 79.9049 16.136 79.9049 16.832V20H78.7529Z" fill="white"/>
<path d="M21.026 22.0007C27.064 22.0007 30.367 16.9977 30.367 12.6667C30.367 12.5267 30.367 12.3847 30.361 12.2447C31.0041 11.7792 31.5591 11.2028 32 10.5427C31.3993 10.8075 30.7628 10.9821 30.111 11.0607C30.7975 10.6503 31.3117 10.0047 31.558 9.24369C30.913 9.62582 30.207 9.89407 29.471 10.0367C28.9762 9.50972 28.3214 9.16061 27.6081 9.04345C26.8948 8.92629 26.1627 9.04761 25.5253 9.38863C24.888 9.72965 24.3808 10.2713 24.0824 10.9298C23.7841 11.5882 23.7112 12.3266 23.875 13.0307C22.5697 12.9652 21.2928 12.6262 20.127 12.0354C18.9613 11.4447 17.9327 10.6155 17.108 9.60169C16.6893 10.3248 16.5616 11.1801 16.7506 11.994C16.9397 12.8078 17.4315 13.5192 18.126 13.9837C17.6055 13.966 17.0965 13.8263 16.64 13.5757V13.6207C16.6409 14.3782 16.9033 15.1121 17.3829 15.6985C17.8624 16.2848 18.5297 16.6876 19.272 16.8387C18.9903 16.9163 18.6992 16.955 18.407 16.9537C18.201 16.9543 17.9954 16.9352 17.793 16.8967C18.0028 17.5488 18.4113 18.1189 18.9612 18.5272C19.5112 18.9355 20.1751 19.1615 20.86 19.1737C19.6966 20.0875 18.2594 20.5831 16.78 20.5807C16.5193 20.5818 16.2588 20.5668 16 20.5357C17.5015 21.493 19.2453 22.0012 21.026 22.0007V22.0007Z" fill="white"/>
</svg>
