<svg width="108" height="32" viewBox="0 0 108 32" fill="none" xmlns="http://www.w3.org/2000/svg">
<rect width="108" height="32" rx="6" fill="#F70000"/>
<path d="M43.338 20V16.784L43.614 17.528L40.002 11.6H41.286L44.322 16.604H43.626L46.674 11.6H47.862L44.262 17.528L44.526 16.784V20H43.338ZM50.9207 20.072C50.2807 20.072 49.7127 19.932 49.2167 19.652C48.7207 19.372 48.3287 18.988 48.0407 18.5C47.7527 18.004 47.6087 17.444 47.6087 16.82C47.6087 16.188 47.7527 15.628 48.0407 15.14C48.3287 14.652 48.7207 14.272 49.2167 14C49.7127 13.72 50.2807 13.58 50.9207 13.58C51.5527 13.58 52.1167 13.72 52.6127 14C53.1167 14.272 53.5087 14.652 53.7887 15.14C54.0767 15.62 54.2207 16.18 54.2207 16.82C54.2207 17.452 54.0767 18.012 53.7887 18.5C53.5087 18.988 53.1167 19.372 52.6127 19.652C52.1167 19.932 51.5527 20.072 50.9207 20.072ZM50.9207 19.064C51.3287 19.064 51.6927 18.972 52.0127 18.788C52.3407 18.604 52.5967 18.344 52.7807 18.008C52.9647 17.664 53.0567 17.268 53.0567 16.82C53.0567 16.364 52.9647 15.972 52.7807 15.644C52.5967 15.308 52.3407 15.048 52.0127 14.864C51.6927 14.68 51.3287 14.588 50.9207 14.588C50.5127 14.588 50.1487 14.68 49.8287 14.864C49.5087 15.048 49.2527 15.308 49.0607 15.644C48.8687 15.972 48.7727 16.364 48.7727 16.82C48.7727 17.268 48.8687 17.664 49.0607 18.008C49.2527 18.344 49.5087 18.604 49.8287 18.788C50.1487 18.972 50.5127 19.064 50.9207 19.064ZM58.4899 20.072C57.9459 20.072 57.4659 19.972 57.0499 19.772C56.6419 19.572 56.3219 19.268 56.0899 18.86C55.8659 18.444 55.7539 17.924 55.7539 17.3V13.64H56.9059V17.168C56.9059 17.792 57.0539 18.26 57.3499 18.572C57.6539 18.884 58.0779 19.04 58.6219 19.04C59.0219 19.04 59.3699 18.96 59.6659 18.8C59.9619 18.632 60.1899 18.392 60.3499 18.08C60.5099 17.76 60.5899 17.376 60.5899 16.928V13.64H61.7419V20H60.6499V18.284L60.8299 18.74C60.6219 19.164 60.3099 19.492 59.8939 19.724C59.4779 19.956 59.0099 20.072 58.4899 20.072ZM64.7631 20V12.644H61.8831V11.6H68.8311V12.644H65.9511V20H64.7631ZM72.4938 20.072C71.9498 20.072 71.4698 19.972 71.0538 19.772C70.6458 19.572 70.3258 19.268 70.0938 18.86C69.8698 18.444 69.7578 17.924 69.7578 17.3V13.64H70.9098V17.168C70.9098 17.792 71.0578 18.26 71.3538 18.572C71.6578 18.884 72.0818 19.04 72.6258 19.04C73.0258 19.04 73.3738 18.96 73.6698 18.8C73.9658 18.632 74.1938 18.392 74.3538 18.08C74.5138 17.76 74.5938 17.376 74.5938 16.928V13.64H75.7458V20H74.6538V18.284L74.8338 18.74C74.6258 19.164 74.3138 19.492 73.8978 19.724C73.4818 19.956 73.0138 20.072 72.4938 20.072ZM81.3109 20.072C80.7669 20.072 80.2749 19.952 79.8349 19.712C79.4029 19.464 79.0589 19.1 78.8029 18.62C78.5549 18.14 78.4309 17.54 78.4309 16.82C78.4309 16.1 78.5589 15.5 78.8149 15.02C79.0789 14.54 79.4269 14.18 79.8589 13.94C80.2989 13.7 80.7829 13.58 81.3109 13.58C81.9349 13.58 82.4869 13.716 82.9669 13.988C83.4469 14.26 83.8269 14.64 84.1069 15.128C84.3869 15.608 84.5269 16.172 84.5269 16.82C84.5269 17.468 84.3869 18.036 84.1069 18.524C83.8269 19.012 83.4469 19.392 82.9669 19.664C82.4869 19.936 81.9349 20.072 81.3109 20.072ZM77.9389 20V11.096H79.0909V15.332L78.9709 16.808L79.0429 18.284V20H77.9389ZM81.2149 19.064C81.6229 19.064 81.9869 18.972 82.3069 18.788C82.6349 18.604 82.8909 18.344 83.0749 18.008C83.2669 17.664 83.3629 17.268 83.3629 16.82C83.3629 16.364 83.2669 15.972 83.0749 15.644C82.8909 15.308 82.6349 15.048 82.3069 14.864C81.9869 14.68 81.6229 14.588 81.2149 14.588C80.8149 14.588 80.4509 14.68 80.1229 14.864C79.8029 15.048 79.5469 15.308 79.3549 15.644C79.1709 15.972 79.0789 16.364 79.0789 16.82C79.0789 17.268 79.1709 17.664 79.3549 18.008C79.5469 18.344 79.8029 18.604 80.1229 18.788C80.4509 18.972 80.8149 19.064 81.2149 19.064ZM88.9506 20.072C88.2706 20.072 87.6706 19.932 87.1506 19.652C86.6386 19.372 86.2386 18.988 85.9506 18.5C85.6706 18.012 85.5306 17.452 85.5306 16.82C85.5306 16.188 85.6666 15.628 85.9386 15.14C86.2186 14.652 86.5986 14.272 87.0786 14C87.5666 13.72 88.1146 13.58 88.7226 13.58C89.3386 13.58 89.8826 13.716 90.3546 13.988C90.8266 14.26 91.1946 14.644 91.4586 15.14C91.7306 15.628 91.8666 16.2 91.8666 16.856C91.8666 16.904 91.8626 16.96 91.8546 17.024C91.8546 17.088 91.8506 17.148 91.8426 17.204H86.4306V16.376H91.2426L90.7746 16.664C90.7826 16.256 90.6986 15.892 90.5226 15.572C90.3466 15.252 90.1026 15.004 89.7906 14.828C89.4866 14.644 89.1306 14.552 88.7226 14.552C88.3226 14.552 87.9666 14.644 87.6546 14.828C87.3426 15.004 87.0986 15.256 86.9226 15.584C86.7466 15.904 86.6586 16.272 86.6586 16.688V16.88C86.6586 17.304 86.7546 17.684 86.9466 18.02C87.1466 18.348 87.4226 18.604 87.7746 18.788C88.1266 18.972 88.5306 19.064 88.9866 19.064C89.3626 19.064 89.7026 19 90.0066 18.872C90.3186 18.744 90.5906 18.552 90.8226 18.296L91.4586 19.04C91.1706 19.376 90.8106 19.632 90.3786 19.808C89.9546 19.984 89.4786 20.072 88.9506 20.072Z" fill="white"/>
<path d="M24.051 10H24.14C24.962 10.003 29.127 10.033 30.25 10.335C30.5895 10.4272 30.8989 10.6068 31.1472 10.856C31.3955 11.1052 31.574 11.4152 31.665 11.755C31.766 12.135 31.837 12.638 31.885 13.157L31.895 13.261L31.917 13.521L31.925 13.625C31.99 14.539 31.998 15.395 31.999 15.582V15.657C31.998 15.851 31.989 16.765 31.917 17.717L31.909 17.822L31.9 17.926C31.85 18.498 31.776 19.066 31.665 19.484C31.5743 19.824 31.3958 20.1341 31.1475 20.3833C30.8991 20.6325 30.5896 20.8121 30.25 20.904C29.09 21.216 24.681 21.238 24.07 21.239H23.928C23.619 21.239 22.341 21.233 21.001 21.187L20.831 21.181L20.744 21.177L20.573 21.17L20.402 21.163C19.292 21.114 18.235 21.035 17.748 20.903C17.4085 20.8112 17.0991 20.6318 16.8507 20.3827C16.6024 20.1337 16.4238 19.8238 16.333 19.484C16.222 19.067 16.148 18.498 16.098 17.926L16.09 17.821L16.082 17.717C16.0326 17.0394 16.0053 16.3604 16 15.681L16 15.558C16.002 15.343 16.01 14.6 16.064 13.78L16.071 13.677L16.074 13.625L16.082 13.521L16.104 13.261L16.114 13.157C16.162 12.638 16.233 12.134 16.334 11.755C16.4247 11.415 16.6032 11.1049 16.8515 10.8557C17.0999 10.6065 17.4094 10.4269 17.749 10.335C18.236 10.205 19.293 10.125 20.403 10.075L20.573 10.068L20.745 10.062L20.831 10.059L21.002 10.052C21.9537 10.0214 22.9058 10.0044 23.858 10.001H24.051V10ZM22.4 13.21V18.028L26.557 15.62L22.4 13.21Z" fill="white"/>
</svg>
