<svg width="109" height="32" viewBox="0 0 109 32" fill="none" xmlns="http://www.w3.org/2000/svg">
<rect width="109" height="32" rx="6" fill="#F70000"/>
<path d="M44.338 20V16.784L44.614 17.528L41.002 11.6H42.286L45.322 16.604H44.626L47.674 11.6H48.862L45.262 17.528L45.526 16.784V20H44.338ZM51.9207 20.072C51.2807 20.072 50.7127 19.932 50.2167 19.652C49.7207 19.372 49.3287 18.988 49.0407 18.5C48.7527 18.004 48.6087 17.444 48.6087 16.82C48.6087 16.188 48.7527 15.628 49.0407 15.14C49.3287 14.652 49.7207 14.272 50.2167 14C50.7127 13.72 51.2807 13.58 51.9207 13.58C52.5527 13.58 53.1167 13.72 53.6127 14C54.1167 14.272 54.5087 14.652 54.7887 15.14C55.0767 15.62 55.2207 16.18 55.2207 16.82C55.2207 17.452 55.0767 18.012 54.7887 18.5C54.5087 18.988 54.1167 19.372 53.6127 19.652C53.1167 19.932 52.5527 20.072 51.9207 20.072ZM51.9207 19.064C52.3287 19.064 52.6927 18.972 53.0127 18.788C53.3407 18.604 53.5967 18.344 53.7807 18.008C53.9647 17.664 54.0567 17.268 54.0567 16.82C54.0567 16.364 53.9647 15.972 53.7807 15.644C53.5967 15.308 53.3407 15.048 53.0127 14.864C52.6927 14.68 52.3287 14.588 51.9207 14.588C51.5127 14.588 51.1487 14.68 50.8287 14.864C50.5087 15.048 50.2527 15.308 50.0607 15.644C49.8687 15.972 49.7727 16.364 49.7727 16.82C49.7727 17.268 49.8687 17.664 50.0607 18.008C50.2527 18.344 50.5087 18.604 50.8287 18.788C51.1487 18.972 51.5127 19.064 51.9207 19.064ZM59.4899 20.072C58.9459 20.072 58.4659 19.972 58.0499 19.772C57.6419 19.572 57.3219 19.268 57.0899 18.86C56.8659 18.444 56.7539 17.924 56.7539 17.3V13.64H57.9059V17.168C57.9059 17.792 58.0539 18.26 58.3499 18.572C58.6539 18.884 59.0779 19.04 59.6219 19.04C60.0219 19.04 60.3699 18.96 60.6659 18.8C60.9619 18.632 61.1899 18.392 61.3499 18.08C61.5099 17.76 61.5899 17.376 61.5899 16.928V13.64H62.7419V20H61.6499V18.284L61.8299 18.74C61.6219 19.164 61.3099 19.492 60.8939 19.724C60.4779 19.956 60.0099 20.072 59.4899 20.072ZM65.7631 20V12.644H62.8831V11.6H69.8311V12.644H66.9511V20H65.7631ZM73.4938 20.072C72.9498 20.072 72.4698 19.972 72.0538 19.772C71.6458 19.572 71.3258 19.268 71.0938 18.86C70.8698 18.444 70.7578 17.924 70.7578 17.3V13.64H71.9098V17.168C71.9098 17.792 72.0578 18.26 72.3538 18.572C72.6578 18.884 73.0818 19.04 73.6258 19.04C74.0258 19.04 74.3738 18.96 74.6698 18.8C74.9658 18.632 75.1938 18.392 75.3538 18.08C75.5138 17.76 75.5938 17.376 75.5938 16.928V13.64H76.7458V20H75.6538V18.284L75.8338 18.74C75.6258 19.164 75.3138 19.492 74.8978 19.724C74.4818 19.956 74.0138 20.072 73.4938 20.072ZM82.3109 20.072C81.7669 20.072 81.2749 19.952 80.8349 19.712C80.4029 19.464 80.0589 19.1 79.8029 18.62C79.5549 18.14 79.4309 17.54 79.4309 16.82C79.4309 16.1 79.5589 15.5 79.8149 15.02C80.0789 14.54 80.4269 14.18 80.8589 13.94C81.2989 13.7 81.7829 13.58 82.3109 13.58C82.9349 13.58 83.4869 13.716 83.9669 13.988C84.4469 14.26 84.8269 14.64 85.1069 15.128C85.3869 15.608 85.5269 16.172 85.5269 16.82C85.5269 17.468 85.3869 18.036 85.1069 18.524C84.8269 19.012 84.4469 19.392 83.9669 19.664C83.4869 19.936 82.9349 20.072 82.3109 20.072ZM78.9389 20V11.096H80.0909V15.332L79.9709 16.808L80.0429 18.284V20H78.9389ZM82.2149 19.064C82.6229 19.064 82.9869 18.972 83.3069 18.788C83.6349 18.604 83.8909 18.344 84.0749 18.008C84.2669 17.664 84.3629 17.268 84.3629 16.82C84.3629 16.364 84.2669 15.972 84.0749 15.644C83.8909 15.308 83.6349 15.048 83.3069 14.864C82.9869 14.68 82.6229 14.588 82.2149 14.588C81.8149 14.588 81.4509 14.68 81.1229 14.864C80.8029 15.048 80.5469 15.308 80.3549 15.644C80.1709 15.972 80.0789 16.364 80.0789 16.82C80.0789 17.268 80.1709 17.664 80.3549 18.008C80.5469 18.344 80.8029 18.604 81.1229 18.788C81.4509 18.972 81.8149 19.064 82.2149 19.064ZM89.9506 20.072C89.2706 20.072 88.6706 19.932 88.1506 19.652C87.6386 19.372 87.2386 18.988 86.9506 18.5C86.6706 18.012 86.5306 17.452 86.5306 16.82C86.5306 16.188 86.6666 15.628 86.9386 15.14C87.2186 14.652 87.5986 14.272 88.0786 14C88.5666 13.72 89.1146 13.58 89.7226 13.58C90.3386 13.58 90.8826 13.716 91.3546 13.988C91.8266 14.26 92.1946 14.644 92.4586 15.14C92.7306 15.628 92.8666 16.2 92.8666 16.856C92.8666 16.904 92.8626 16.96 92.8546 17.024C92.8546 17.088 92.8506 17.148 92.8426 17.204H87.4306V16.376H92.2426L91.7746 16.664C91.7826 16.256 91.6986 15.892 91.5226 15.572C91.3466 15.252 91.1026 15.004 90.7906 14.828C90.4866 14.644 90.1306 14.552 89.7226 14.552C89.3226 14.552 88.9666 14.644 88.6546 14.828C88.3426 15.004 88.0986 15.256 87.9226 15.584C87.7466 15.904 87.6586 16.272 87.6586 16.688V16.88C87.6586 17.304 87.7546 17.684 87.9466 18.02C88.1466 18.348 88.4226 18.604 88.7746 18.788C89.1266 18.972 89.5306 19.064 89.9866 19.064C90.3626 19.064 90.7026 19 91.0066 18.872C91.3186 18.744 91.5906 18.552 91.8226 18.296L92.4586 19.04C92.1706 19.376 91.8106 19.632 91.3786 19.808C90.9546 19.984 90.4786 20.072 89.9506 20.072Z" fill="white"/>
<path d="M25.051 10H25.14C25.962 10.003 30.127 10.033 31.25 10.335C31.5895 10.4272 31.8989 10.6068 32.1472 10.856C32.3955 11.1052 32.574 11.4152 32.665 11.755C32.766 12.135 32.837 12.638 32.885 13.157L32.895 13.261L32.917 13.521L32.925 13.625C32.99 14.539 32.998 15.395 32.999 15.582V15.657C32.998 15.851 32.989 16.765 32.917 17.717L32.909 17.822L32.9 17.926C32.85 18.498 32.776 19.066 32.665 19.484C32.5743 19.824 32.3958 20.1341 32.1475 20.3833C31.8991 20.6325 31.5896 20.8121 31.25 20.904C30.09 21.216 25.681 21.238 25.07 21.239H24.928C24.619 21.239 23.341 21.233 22.001 21.187L21.831 21.181L21.744 21.177L21.573 21.17L21.402 21.163C20.292 21.114 19.235 21.035 18.748 20.903C18.4085 20.8112 18.0991 20.6318 17.8507 20.3827C17.6024 20.1337 17.4238 19.8238 17.333 19.484C17.222 19.067 17.148 18.498 17.098 17.926L17.09 17.821L17.082 17.717C17.0326 17.0394 17.0053 16.3604 17 15.681L17 15.558C17.002 15.343 17.01 14.6 17.064 13.78L17.071 13.677L17.074 13.625L17.082 13.521L17.104 13.261L17.114 13.157C17.162 12.638 17.233 12.134 17.334 11.755C17.4247 11.415 17.6032 11.1049 17.8515 10.8557C18.0999 10.6065 18.4094 10.4269 18.749 10.335C19.236 10.205 20.293 10.125 21.403 10.075L21.573 10.068L21.745 10.062L21.831 10.059L22.002 10.052C22.9537 10.0214 23.9058 10.0044 24.858 10.001H25.051V10ZM23.4 13.21V18.028L27.557 15.62L23.4 13.21Z" fill="white"/>
</svg>
