<svg width="12" height="12" viewBox="0 0 14 16" fill="none" xmlns="http://www.w3.org/2000/svg">
<path d="M11.6667 16H2.33333C1.59733 16 0.999995 15.4027 0.999995 14.6667V4H13V14.6667C13 15.4027 12.4027 16 11.6667 16ZM5.66666 6.66667C5.66666 6.29867 5.36799 6 4.99999 6C4.63199 6 4.33333 6.29867 4.33333 6.66667V12.6667C4.33333 13.0347 4.63199 13.3333 4.99999 13.3333C5.36799 13.3333 5.66666 13.0347 5.66666 12.6667V6.66667ZM9.66666 6.66667C9.66666 6.29867 9.36799 6 8.99999 6C8.63199 6 8.33333 6.29867 8.33333 6.66667V12.6667C8.33333 13.0347 8.63199 13.3333 8.99999 13.3333C9.36799 13.3333 9.66666 13.0347 9.66666 12.6667V6.66667ZM13.6667 3.33333H0.333328V2H4.33333V1C4.33333 0.448667 4.78199 0 5.33333 0H8.66666C9.21666 0 9.66666 0.447333 9.66666 1V2H13.6667V3.33333ZM5.66666 2H8.33333V1.33333H5.66666V2Z" fill="#24292F"/>
</svg>
