<svg width="286" height="48" viewBox="0 0 286 48" fill="none" xmlns="http://www.w3.org/2000/svg">
<path d="M33.7806 8.51866H20.8297V47.2456H13.3484V8.51866H0.428955V2.16896H33.7806V8.51866Z" fill="url(#paint0_linear_702_3)"/>
<path d="M47.5488 48C42.5822 48 38.611 46.5016 35.6352 43.5049C32.6804 40.4872 31.203 36.4951 31.203 31.5285C31.203 26.1218 32.7433 21.8991 35.8238 18.8605C38.9254 15.8219 43.0956 14.3026 48.3347 14.3026C53.3641 14.3026 57.2829 15.78 60.091 18.7348C62.8992 21.6896 64.3032 25.7865 64.3032 31.0255C64.3032 36.1598 62.7839 40.2777 59.7453 43.3792C56.7276 46.4597 52.6621 48 47.5488 48ZM47.8946 20.1179C45.0445 20.1179 42.7918 21.1133 41.1362 23.1041C39.4807 25.095 38.6529 27.8402 38.6529 31.3399C38.6529 34.7138 39.4912 37.3752 41.1677 39.3242C42.8441 41.2521 45.0865 42.2161 47.8946 42.2161C50.7656 42.2161 52.966 41.2626 54.4958 39.3556C56.0465 37.4486 56.8219 34.7348 56.8219 31.2141C56.8219 27.6726 56.0465 24.9378 54.4958 23.0098C52.966 21.0819 50.7656 20.1179 47.8946 20.1179Z" fill="url(#paint1_linear_702_3)"/>
<path d="M90.2993 47.2456V2.16896H103.313C119.931 2.16896 128.24 9.49312 128.24 24.1415C128.24 31.0989 125.935 36.6942 121.325 40.9273C116.714 45.1395 110.532 47.2456 102.779 47.2456H90.2993ZM97.7492 8.51866V40.9273H103.722C108.982 40.9273 113.068 39.4813 115.981 36.5894C118.915 33.6974 120.382 29.611 120.382 24.3301C120.382 13.7891 114.923 8.51866 104.005 8.51866H97.7492Z" fill="url(#paint2_linear_702_3)"/>
<path d="M149.961 48C144.995 48 141.024 46.5016 138.048 43.5049C135.093 40.4872 133.616 36.4951 133.616 31.5285C133.616 26.1218 135.156 21.8991 138.236 18.8605C141.338 15.8219 145.508 14.3026 150.747 14.3026C155.777 14.3026 159.695 15.78 162.504 18.7348C165.312 21.6896 166.716 25.7865 166.716 31.0255C166.716 36.1598 165.196 40.2777 162.158 43.3792C159.14 46.4597 155.075 48 149.961 48ZM150.307 20.1179C147.457 20.1179 145.204 21.1133 143.549 23.1041C141.893 25.095 141.065 27.8402 141.065 31.3399C141.065 34.7138 141.904 37.3752 143.58 39.3242C145.257 41.2521 147.499 42.2161 150.307 42.2161C153.178 42.2161 155.379 41.2626 156.908 39.3556C158.459 37.4486 159.234 34.7348 159.234 31.2141C159.234 27.6726 158.459 24.9378 156.908 23.0098C155.379 21.0819 153.178 20.1179 150.307 20.1179Z" fill="url(#paint3_linear_702_3)"/>
<path d="M217.671 47.2456H192.712V2.16896H200.193V40.9273H217.671V47.2456Z" fill="url(#paint4_linear_702_3)"/>
<path d="M227.069 8.29862C225.875 8.29862 224.848 7.91094 223.989 7.13556C223.151 6.36018 222.732 5.37525 222.732 4.18075C222.732 2.98625 223.151 1.99083 223.989 1.1945C224.848 0.398166 225.875 0 227.069 0C228.306 0 229.354 0.398166 230.213 1.1945C231.072 1.99083 231.502 2.98625 231.502 4.18075C231.502 5.31238 231.072 6.28684 230.213 7.10413C229.354 7.90046 228.306 8.29862 227.069 8.29862ZM230.684 47.2456H223.392V15.057H230.684V47.2456Z" fill="url(#paint5_linear_702_3)"/>
<path d="M238.229 46.2397V39.4813C240.953 41.556 243.96 42.5933 247.25 42.5933C251.651 42.5933 253.851 41.294 253.851 38.6955C253.851 37.962 253.663 37.3438 253.286 36.8409C252.908 36.317 252.395 35.8559 251.745 35.4578C251.117 35.0596 250.362 34.7033 249.482 34.389C248.623 34.0747 247.659 33.7184 246.59 33.3202C245.27 32.7963 244.075 32.241 243.007 31.6542C241.959 31.0675 241.079 30.4073 240.366 29.6739C239.675 28.9195 239.151 28.0707 238.794 27.1277C238.438 26.1847 238.26 25.0845 238.26 23.8271C238.26 22.2764 238.627 20.9142 239.36 19.7407C240.094 18.5462 241.079 17.5508 242.315 16.7544C243.551 15.9371 244.955 15.3294 246.527 14.9312C248.099 14.5121 249.723 14.3026 251.399 14.3026C254.375 14.3026 257.037 14.7531 259.384 15.6542V22.0354C257.121 20.4846 254.522 19.7092 251.588 19.7092C250.666 19.7092 249.828 19.8035 249.073 19.9921C248.34 20.1807 247.711 20.4427 247.187 20.778C246.663 21.1133 246.255 21.5219 245.961 22.0039C245.668 22.465 245.521 22.9784 245.521 23.5442C245.521 24.2358 245.668 24.8225 245.961 25.3045C246.255 25.7865 246.684 26.2161 247.25 26.5933C247.837 26.9496 248.528 27.2849 249.325 27.5992C250.142 27.8926 251.075 28.2174 252.122 28.5737C253.506 29.1395 254.742 29.7158 255.832 30.3026C256.942 30.8893 257.885 31.5599 258.661 32.3143C259.436 33.0478 260.033 33.907 260.453 34.8919C260.872 35.8559 261.081 37.0085 261.081 38.3497C261.081 39.9843 260.704 41.4093 259.95 42.6248C259.195 43.8402 258.189 44.8461 256.932 45.6424C255.675 46.4388 254.218 47.0255 252.563 47.4028C250.928 47.8009 249.199 48 247.376 48C243.855 48 240.806 47.4132 238.229 46.2397Z" fill="url(#paint6_linear_702_3)"/>
<path d="M285.003 46.8998C283.578 47.6123 281.702 47.9686 279.376 47.9686C273.131 47.9686 270.009 44.9718 270.009 38.9784V20.778H264.633V15.057H270.009V7.60707L277.301 5.53242V15.057H285.003V20.778H277.301V36.8723C277.301 38.7793 277.647 40.1415 278.339 40.9587C279.03 41.776 280.183 42.1847 281.796 42.1847C283.033 42.1847 284.102 41.8284 285.003 41.1159V46.8998Z" fill="url(#paint7_linear_702_3)"/>
<defs>
<linearGradient id="paint0_linear_702_3" x1="79.8422" y1="4.84086" x2="84.1925" y2="49.5169" gradientUnits="userSpaceOnUse">
<stop stop-color="#006880"/>
<stop offset="1" stop-color="#005366"/>
</linearGradient>
<linearGradient id="paint1_linear_702_3" x1="79.8422" y1="4.84086" x2="84.1925" y2="49.5169" gradientUnits="userSpaceOnUse">
<stop stop-color="#006880"/>
<stop offset="1" stop-color="#005366"/>
</linearGradient>
<linearGradient id="paint2_linear_702_3" x1="79.8422" y1="4.84086" x2="84.1925" y2="49.5169" gradientUnits="userSpaceOnUse">
<stop stop-color="#006880"/>
<stop offset="1" stop-color="#005366"/>
</linearGradient>
<linearGradient id="paint3_linear_702_3" x1="79.8422" y1="4.84086" x2="84.1925" y2="49.5169" gradientUnits="userSpaceOnUse">
<stop stop-color="#006880"/>
<stop offset="1" stop-color="#005366"/>
</linearGradient>
<linearGradient id="paint4_linear_702_3" x1="79.8422" y1="4.84086" x2="84.1925" y2="49.5169" gradientUnits="userSpaceOnUse">
<stop stop-color="#006880"/>
<stop offset="1" stop-color="#005366"/>
</linearGradient>
<linearGradient id="paint5_linear_702_3" x1="79.8422" y1="4.84086" x2="84.1925" y2="49.5169" gradientUnits="userSpaceOnUse">
<stop stop-color="#006880"/>
<stop offset="1" stop-color="#005366"/>
</linearGradient>
<linearGradient id="paint6_linear_702_3" x1="79.8422" y1="4.84086" x2="84.1925" y2="49.5169" gradientUnits="userSpaceOnUse">
<stop stop-color="#006880"/>
<stop offset="1" stop-color="#005366"/>
</linearGradient>
<linearGradient id="paint7_linear_702_3" x1="79.8422" y1="4.84086" x2="84.1925" y2="49.5169" gradientUnits="userSpaceOnUse">
<stop stop-color="#006880"/>
<stop offset="1" stop-color="#005366"/>
</linearGradient>
</defs>
</svg>
