<svg width="290" height="52" viewBox="0 0 290 52" fill="none" xmlns="http://www.w3.org/2000/svg">
<mask id="path-1-outside-1_702_3" maskUnits="userSpaceOnUse" x="0.428955" y="0" width="289" height="52" fill="black">
<rect fill="white" x="0.428955" width="289" height="52"/>
<path d="M35.7806 10.5187H22.8297V49.2456H15.3484V10.5187H2.42896V4.16896H35.7806V10.5187Z"/>
<path d="M49.5488 50C44.5822 50 40.611 48.5016 37.6352 45.5049C34.6804 42.4872 33.203 38.4951 33.203 33.5285C33.203 28.1218 34.7433 23.8991 37.8238 20.8605C40.9254 17.8219 45.0956 16.3026 50.3347 16.3026C55.3641 16.3026 59.2829 17.78 62.091 20.7348C64.8992 23.6896 66.3032 27.7865 66.3032 33.0255C66.3032 38.1598 64.7839 42.2777 61.7453 45.3792C58.7276 48.4597 54.6621 50 49.5488 50ZM49.8946 22.1179C47.0445 22.1179 44.7918 23.1133 43.1362 25.1041C41.4807 27.095 40.6529 29.8402 40.6529 33.3399C40.6529 36.7138 41.4912 39.3752 43.1677 41.3242C44.8441 43.2521 47.0865 44.2161 49.8946 44.2161C52.7656 44.2161 54.966 43.2626 56.4958 41.3556C58.0465 39.4486 58.8219 36.7348 58.8219 33.2141C58.8219 29.6726 58.0465 26.9378 56.4958 25.0098C54.966 23.0819 52.7656 22.1179 49.8946 22.1179Z"/>
<path d="M92.2993 49.2456V4.16896H105.313C121.931 4.16896 130.24 11.4931 130.24 26.1415C130.24 33.0989 127.935 38.6942 123.325 42.9273C118.714 47.1395 112.532 49.2456 104.779 49.2456H92.2993ZM99.7492 10.5187V42.9273H105.722C110.982 42.9273 115.068 41.4813 117.981 38.5894C120.915 35.6974 122.382 31.611 122.382 26.3301C122.382 15.7891 116.923 10.5187 106.005 10.5187H99.7492Z"/>
<path d="M151.961 50C146.995 50 143.024 48.5016 140.048 45.5049C137.093 42.4872 135.616 38.4951 135.616 33.5285C135.616 28.1218 137.156 23.8991 140.236 20.8605C143.338 17.8219 147.508 16.3026 152.747 16.3026C157.777 16.3026 161.695 17.78 164.504 20.7348C167.312 23.6896 168.716 27.7865 168.716 33.0255C168.716 38.1598 167.196 42.2777 164.158 45.3792C161.14 48.4597 157.075 50 151.961 50ZM152.307 22.1179C149.457 22.1179 147.204 23.1133 145.549 25.1041C143.893 27.095 143.065 29.8402 143.065 33.3399C143.065 36.7138 143.904 39.3752 145.58 41.3242C147.257 43.2521 149.499 44.2161 152.307 44.2161C155.178 44.2161 157.379 43.2626 158.908 41.3556C160.459 39.4486 161.234 36.7348 161.234 33.2141C161.234 29.6726 160.459 26.9378 158.908 25.0098C157.379 23.0819 155.178 22.1179 152.307 22.1179Z"/>
<path d="M219.671 49.2456H194.712V4.16896H202.193V42.9273H219.671V49.2456Z"/>
<path d="M229.069 10.2986C227.875 10.2986 226.848 9.91094 225.989 9.13556C225.151 8.36018 224.732 7.37525 224.732 6.18075C224.732 4.98625 225.151 3.99083 225.989 3.1945C226.848 2.39817 227.875 2 229.069 2C230.306 2 231.354 2.39817 232.213 3.1945C233.072 3.99083 233.502 4.98625 233.502 6.18075C233.502 7.31238 233.072 8.28684 232.213 9.10413C231.354 9.90046 230.306 10.2986 229.069 10.2986ZM232.684 49.2456H225.392V17.057H232.684V49.2456Z"/>
<path d="M240.229 48.2397V41.4813C242.953 43.556 245.96 44.5933 249.25 44.5933C253.651 44.5933 255.851 43.294 255.851 40.6955C255.851 39.962 255.663 39.3438 255.286 38.8409C254.908 38.317 254.395 37.8559 253.745 37.4578C253.117 37.0596 252.362 36.7033 251.482 36.389C250.623 36.0747 249.659 35.7184 248.59 35.3202C247.27 34.7963 246.075 34.241 245.007 33.6542C243.959 33.0675 243.079 32.4073 242.366 31.6739C241.675 30.9195 241.151 30.0707 240.794 29.1277C240.438 28.1847 240.26 27.0845 240.26 25.8271C240.26 24.2764 240.627 22.9142 241.36 21.7407C242.094 20.5462 243.079 19.5508 244.315 18.7544C245.551 17.9371 246.955 17.3294 248.527 16.9312C250.099 16.5121 251.723 16.3026 253.399 16.3026C256.375 16.3026 259.037 16.7531 261.384 17.6542V24.0354C259.121 22.4846 256.522 21.7092 253.588 21.7092C252.666 21.7092 251.828 21.8035 251.073 21.9921C250.34 22.1807 249.711 22.4427 249.187 22.778C248.663 23.1133 248.255 23.5219 247.961 24.0039C247.668 24.465 247.521 24.9784 247.521 25.5442C247.521 26.2358 247.668 26.8225 247.961 27.3045C248.255 27.7865 248.684 28.2161 249.25 28.5933C249.837 28.9496 250.528 29.2849 251.325 29.5992C252.142 29.8926 253.075 30.2174 254.122 30.5737C255.506 31.1395 256.742 31.7158 257.832 32.3026C258.942 32.8893 259.885 33.5599 260.661 34.3143C261.436 35.0478 262.033 35.907 262.453 36.8919C262.872 37.8559 263.081 39.0085 263.081 40.3497C263.081 41.9843 262.704 43.4093 261.95 44.6248C261.195 45.8402 260.189 46.8461 258.932 47.6424C257.675 48.4388 256.218 49.0255 254.563 49.4028C252.928 49.8009 251.199 50 249.376 50C245.855 50 242.806 49.4132 240.229 48.2397Z"/>
<path d="M287.003 48.8998C285.578 49.6123 283.702 49.9686 281.376 49.9686C275.131 49.9686 272.009 46.9718 272.009 40.9784V22.778H266.633V17.057H272.009V9.60707L279.301 7.53242V17.057H287.003V22.778H279.301V38.8723C279.301 40.7793 279.647 42.1415 280.339 42.9587C281.03 43.776 282.183 44.1847 283.796 44.1847C285.033 44.1847 286.102 43.8284 287.003 43.1159V48.8998Z"/>
</mask>
<path d="M35.7806 10.5187H22.8297V49.2456H15.3484V10.5187H2.42896V4.16896H35.7806V10.5187Z" fill="url(#paint0_linear_702_3)"/>
<path d="M49.5488 50C44.5822 50 40.611 48.5016 37.6352 45.5049C34.6804 42.4872 33.203 38.4951 33.203 33.5285C33.203 28.1218 34.7433 23.8991 37.8238 20.8605C40.9254 17.8219 45.0956 16.3026 50.3347 16.3026C55.3641 16.3026 59.2829 17.78 62.091 20.7348C64.8992 23.6896 66.3032 27.7865 66.3032 33.0255C66.3032 38.1598 64.7839 42.2777 61.7453 45.3792C58.7276 48.4597 54.6621 50 49.5488 50ZM49.8946 22.1179C47.0445 22.1179 44.7918 23.1133 43.1362 25.1041C41.4807 27.095 40.6529 29.8402 40.6529 33.3399C40.6529 36.7138 41.4912 39.3752 43.1677 41.3242C44.8441 43.2521 47.0865 44.2161 49.8946 44.2161C52.7656 44.2161 54.966 43.2626 56.4958 41.3556C58.0465 39.4486 58.8219 36.7348 58.8219 33.2141C58.8219 29.6726 58.0465 26.9378 56.4958 25.0098C54.966 23.0819 52.7656 22.1179 49.8946 22.1179Z" fill="url(#paint1_linear_702_3)"/>
<path d="M92.2993 49.2456V4.16896H105.313C121.931 4.16896 130.24 11.4931 130.24 26.1415C130.24 33.0989 127.935 38.6942 123.325 42.9273C118.714 47.1395 112.532 49.2456 104.779 49.2456H92.2993ZM99.7492 10.5187V42.9273H105.722C110.982 42.9273 115.068 41.4813 117.981 38.5894C120.915 35.6974 122.382 31.611 122.382 26.3301C122.382 15.7891 116.923 10.5187 106.005 10.5187H99.7492Z" fill="url(#paint2_linear_702_3)"/>
<path d="M151.961 50C146.995 50 143.024 48.5016 140.048 45.5049C137.093 42.4872 135.616 38.4951 135.616 33.5285C135.616 28.1218 137.156 23.8991 140.236 20.8605C143.338 17.8219 147.508 16.3026 152.747 16.3026C157.777 16.3026 161.695 17.78 164.504 20.7348C167.312 23.6896 168.716 27.7865 168.716 33.0255C168.716 38.1598 167.196 42.2777 164.158 45.3792C161.14 48.4597 157.075 50 151.961 50ZM152.307 22.1179C149.457 22.1179 147.204 23.1133 145.549 25.1041C143.893 27.095 143.065 29.8402 143.065 33.3399C143.065 36.7138 143.904 39.3752 145.58 41.3242C147.257 43.2521 149.499 44.2161 152.307 44.2161C155.178 44.2161 157.379 43.2626 158.908 41.3556C160.459 39.4486 161.234 36.7348 161.234 33.2141C161.234 29.6726 160.459 26.9378 158.908 25.0098C157.379 23.0819 155.178 22.1179 152.307 22.1179Z" fill="url(#paint3_linear_702_3)"/>
<path d="M219.671 49.2456H194.712V4.16896H202.193V42.9273H219.671V49.2456Z" fill="url(#paint4_linear_702_3)"/>
<path d="M229.069 10.2986C227.875 10.2986 226.848 9.91094 225.989 9.13556C225.151 8.36018 224.732 7.37525 224.732 6.18075C224.732 4.98625 225.151 3.99083 225.989 3.1945C226.848 2.39817 227.875 2 229.069 2C230.306 2 231.354 2.39817 232.213 3.1945C233.072 3.99083 233.502 4.98625 233.502 6.18075C233.502 7.31238 233.072 8.28684 232.213 9.10413C231.354 9.90046 230.306 10.2986 229.069 10.2986ZM232.684 49.2456H225.392V17.057H232.684V49.2456Z" fill="url(#paint5_linear_702_3)"/>
<path d="M240.229 48.2397V41.4813C242.953 43.556 245.96 44.5933 249.25 44.5933C253.651 44.5933 255.851 43.294 255.851 40.6955C255.851 39.962 255.663 39.3438 255.286 38.8409C254.908 38.317 254.395 37.8559 253.745 37.4578C253.117 37.0596 252.362 36.7033 251.482 36.389C250.623 36.0747 249.659 35.7184 248.59 35.3202C247.27 34.7963 246.075 34.241 245.007 33.6542C243.959 33.0675 243.079 32.4073 242.366 31.6739C241.675 30.9195 241.151 30.0707 240.794 29.1277C240.438 28.1847 240.26 27.0845 240.26 25.8271C240.26 24.2764 240.627 22.9142 241.36 21.7407C242.094 20.5462 243.079 19.5508 244.315 18.7544C245.551 17.9371 246.955 17.3294 248.527 16.9312C250.099 16.5121 251.723 16.3026 253.399 16.3026C256.375 16.3026 259.037 16.7531 261.384 17.6542V24.0354C259.121 22.4846 256.522 21.7092 253.588 21.7092C252.666 21.7092 251.828 21.8035 251.073 21.9921C250.34 22.1807 249.711 22.4427 249.187 22.778C248.663 23.1133 248.255 23.5219 247.961 24.0039C247.668 24.465 247.521 24.9784 247.521 25.5442C247.521 26.2358 247.668 26.8225 247.961 27.3045C248.255 27.7865 248.684 28.2161 249.25 28.5933C249.837 28.9496 250.528 29.2849 251.325 29.5992C252.142 29.8926 253.075 30.2174 254.122 30.5737C255.506 31.1395 256.742 31.7158 257.832 32.3026C258.942 32.8893 259.885 33.5599 260.661 34.3143C261.436 35.0478 262.033 35.907 262.453 36.8919C262.872 37.8559 263.081 39.0085 263.081 40.3497C263.081 41.9843 262.704 43.4093 261.95 44.6248C261.195 45.8402 260.189 46.8461 258.932 47.6424C257.675 48.4388 256.218 49.0255 254.563 49.4028C252.928 49.8009 251.199 50 249.376 50C245.855 50 242.806 49.4132 240.229 48.2397Z" fill="url(#paint6_linear_702_3)"/>
<path d="M287.003 48.8998C285.578 49.6123 283.702 49.9686 281.376 49.9686C275.131 49.9686 272.009 46.9718 272.009 40.9784V22.778H266.633V17.057H272.009V9.60707L279.301 7.53242V17.057H287.003V22.778H279.301V38.8723C279.301 40.7793 279.647 42.1415 280.339 42.9587C281.03 43.776 282.183 44.1847 283.796 44.1847C285.033 44.1847 286.102 43.8284 287.003 43.1159V48.8998Z" fill="url(#paint7_linear_702_3)"/>
<path d="M35.7806 10.5187H22.8297V49.2456H15.3484V10.5187H2.42896V4.16896H35.7806V10.5187Z" stroke="white" stroke-width="4" mask="url(#path-1-outside-1_702_3)"/>
<path d="M49.5488 50C44.5822 50 40.611 48.5016 37.6352 45.5049C34.6804 42.4872 33.203 38.4951 33.203 33.5285C33.203 28.1218 34.7433 23.8991 37.8238 20.8605C40.9254 17.8219 45.0956 16.3026 50.3347 16.3026C55.3641 16.3026 59.2829 17.78 62.091 20.7348C64.8992 23.6896 66.3032 27.7865 66.3032 33.0255C66.3032 38.1598 64.7839 42.2777 61.7453 45.3792C58.7276 48.4597 54.6621 50 49.5488 50ZM49.8946 22.1179C47.0445 22.1179 44.7918 23.1133 43.1362 25.1041C41.4807 27.095 40.6529 29.8402 40.6529 33.3399C40.6529 36.7138 41.4912 39.3752 43.1677 41.3242C44.8441 43.2521 47.0865 44.2161 49.8946 44.2161C52.7656 44.2161 54.966 43.2626 56.4958 41.3556C58.0465 39.4486 58.8219 36.7348 58.8219 33.2141C58.8219 29.6726 58.0465 26.9378 56.4958 25.0098C54.966 23.0819 52.7656 22.1179 49.8946 22.1179Z" stroke="white" stroke-width="4" mask="url(#path-1-outside-1_702_3)"/>
<path d="M92.2993 49.2456V4.16896H105.313C121.931 4.16896 130.24 11.4931 130.24 26.1415C130.24 33.0989 127.935 38.6942 123.325 42.9273C118.714 47.1395 112.532 49.2456 104.779 49.2456H92.2993ZM99.7492 10.5187V42.9273H105.722C110.982 42.9273 115.068 41.4813 117.981 38.5894C120.915 35.6974 122.382 31.611 122.382 26.3301C122.382 15.7891 116.923 10.5187 106.005 10.5187H99.7492Z" stroke="white" stroke-width="4" mask="url(#path-1-outside-1_702_3)"/>
<path d="M151.961 50C146.995 50 143.024 48.5016 140.048 45.5049C137.093 42.4872 135.616 38.4951 135.616 33.5285C135.616 28.1218 137.156 23.8991 140.236 20.8605C143.338 17.8219 147.508 16.3026 152.747 16.3026C157.777 16.3026 161.695 17.78 164.504 20.7348C167.312 23.6896 168.716 27.7865 168.716 33.0255C168.716 38.1598 167.196 42.2777 164.158 45.3792C161.14 48.4597 157.075 50 151.961 50ZM152.307 22.1179C149.457 22.1179 147.204 23.1133 145.549 25.1041C143.893 27.095 143.065 29.8402 143.065 33.3399C143.065 36.7138 143.904 39.3752 145.58 41.3242C147.257 43.2521 149.499 44.2161 152.307 44.2161C155.178 44.2161 157.379 43.2626 158.908 41.3556C160.459 39.4486 161.234 36.7348 161.234 33.2141C161.234 29.6726 160.459 26.9378 158.908 25.0098C157.379 23.0819 155.178 22.1179 152.307 22.1179Z" stroke="white" stroke-width="4" mask="url(#path-1-outside-1_702_3)"/>
<path d="M219.671 49.2456H194.712V4.16896H202.193V42.9273H219.671V49.2456Z" stroke="white" stroke-width="4" mask="url(#path-1-outside-1_702_3)"/>
<path d="M229.069 10.2986C227.875 10.2986 226.848 9.91094 225.989 9.13556C225.151 8.36018 224.732 7.37525 224.732 6.18075C224.732 4.98625 225.151 3.99083 225.989 3.1945C226.848 2.39817 227.875 2 229.069 2C230.306 2 231.354 2.39817 232.213 3.1945C233.072 3.99083 233.502 4.98625 233.502 6.18075C233.502 7.31238 233.072 8.28684 232.213 9.10413C231.354 9.90046 230.306 10.2986 229.069 10.2986ZM232.684 49.2456H225.392V17.057H232.684V49.2456Z" stroke="white" stroke-width="4" mask="url(#path-1-outside-1_702_3)"/>
<path d="M240.229 48.2397V41.4813C242.953 43.556 245.96 44.5933 249.25 44.5933C253.651 44.5933 255.851 43.294 255.851 40.6955C255.851 39.962 255.663 39.3438 255.286 38.8409C254.908 38.317 254.395 37.8559 253.745 37.4578C253.117 37.0596 252.362 36.7033 251.482 36.389C250.623 36.0747 249.659 35.7184 248.59 35.3202C247.27 34.7963 246.075 34.241 245.007 33.6542C243.959 33.0675 243.079 32.4073 242.366 31.6739C241.675 30.9195 241.151 30.0707 240.794 29.1277C240.438 28.1847 240.26 27.0845 240.26 25.8271C240.26 24.2764 240.627 22.9142 241.36 21.7407C242.094 20.5462 243.079 19.5508 244.315 18.7544C245.551 17.9371 246.955 17.3294 248.527 16.9312C250.099 16.5121 251.723 16.3026 253.399 16.3026C256.375 16.3026 259.037 16.7531 261.384 17.6542V24.0354C259.121 22.4846 256.522 21.7092 253.588 21.7092C252.666 21.7092 251.828 21.8035 251.073 21.9921C250.34 22.1807 249.711 22.4427 249.187 22.778C248.663 23.1133 248.255 23.5219 247.961 24.0039C247.668 24.465 247.521 24.9784 247.521 25.5442C247.521 26.2358 247.668 26.8225 247.961 27.3045C248.255 27.7865 248.684 28.2161 249.25 28.5933C249.837 28.9496 250.528 29.2849 251.325 29.5992C252.142 29.8926 253.075 30.2174 254.122 30.5737C255.506 31.1395 256.742 31.7158 257.832 32.3026C258.942 32.8893 259.885 33.5599 260.661 34.3143C261.436 35.0478 262.033 35.907 262.453 36.8919C262.872 37.8559 263.081 39.0085 263.081 40.3497C263.081 41.9843 262.704 43.4093 261.95 44.6248C261.195 45.8402 260.189 46.8461 258.932 47.6424C257.675 48.4388 256.218 49.0255 254.563 49.4028C252.928 49.8009 251.199 50 249.376 50C245.855 50 242.806 49.4132 240.229 48.2397Z" stroke="white" stroke-width="4" mask="url(#path-1-outside-1_702_3)"/>
<path d="M287.003 48.8998C285.578 49.6123 283.702 49.9686 281.376 49.9686C275.131 49.9686 272.009 46.9718 272.009 40.9784V22.778H266.633V17.057H272.009V9.60707L279.301 7.53242V17.057H287.003V22.778H279.301V38.8723C279.301 40.7793 279.647 42.1415 280.339 42.9587C281.03 43.776 282.183 44.1847 283.796 44.1847C285.033 44.1847 286.102 43.8284 287.003 43.1159V48.8998Z" stroke="white" stroke-width="4" mask="url(#path-1-outside-1_702_3)"/>
<defs>
<linearGradient id="paint0_linear_702_3" x1="81.8422" y1="6.84086" x2="86.1925" y2="51.5169" gradientUnits="userSpaceOnUse">
<stop stop-color="#006880"/>
<stop offset="1" stop-color="#005366"/>
</linearGradient>
<linearGradient id="paint1_linear_702_3" x1="81.8422" y1="6.84086" x2="86.1925" y2="51.5169" gradientUnits="userSpaceOnUse">
<stop stop-color="#006880"/>
<stop offset="1" stop-color="#005366"/>
</linearGradient>
<linearGradient id="paint2_linear_702_3" x1="81.8422" y1="6.84086" x2="86.1925" y2="51.5169" gradientUnits="userSpaceOnUse">
<stop stop-color="#006880"/>
<stop offset="1" stop-color="#005366"/>
</linearGradient>
<linearGradient id="paint3_linear_702_3" x1="81.8422" y1="6.84086" x2="86.1925" y2="51.5169" gradientUnits="userSpaceOnUse">
<stop stop-color="#006880"/>
<stop offset="1" stop-color="#005366"/>
</linearGradient>
<linearGradient id="paint4_linear_702_3" x1="81.8422" y1="6.84086" x2="86.1925" y2="51.5169" gradientUnits="userSpaceOnUse">
<stop stop-color="#006880"/>
<stop offset="1" stop-color="#005366"/>
</linearGradient>
<linearGradient id="paint5_linear_702_3" x1="81.8422" y1="6.84086" x2="86.1925" y2="51.5169" gradientUnits="userSpaceOnUse">
<stop stop-color="#006880"/>
<stop offset="1" stop-color="#005366"/>
</linearGradient>
<linearGradient id="paint6_linear_702_3" x1="81.8422" y1="6.84086" x2="86.1925" y2="51.5169" gradientUnits="userSpaceOnUse">
<stop stop-color="#006880"/>
<stop offset="1" stop-color="#005366"/>
</linearGradient>
<linearGradient id="paint7_linear_702_3" x1="81.8422" y1="6.84086" x2="86.1925" y2="51.5169" gradientUnits="userSpaceOnUse">
<stop stop-color="#006880"/>
<stop offset="1" stop-color="#005366"/>
</linearGradient>
</defs>
</svg>
