<svg width="408" height="92" viewBox="0 0 408 92" fill="none" xmlns="http://www.w3.org/2000/svg">
<g filter="url(#filter0_d_702_3)">
<mask id="path-1-outside-1_702_3" maskUnits="userSpaceOnUse" x="8" y="0" width="392" height="76" fill="black">
<rect fill="white" x="8" width="392" height="76"/>
<path d="M58.4689 17.3582H41.201V68.9941H31.2259V17.3582H14V8.89194H58.4689V17.3582Z"/>
<path d="M76.8265 70C70.2043 70 64.9094 68.0022 60.9417 64.0065C57.002 59.983 55.0321 54.6601 55.0321 48.038C55.0321 40.8291 57.0858 35.1989 61.1932 31.1473C65.3285 27.0958 70.8889 25.0701 77.8743 25.0701C84.5802 25.0701 89.8053 27.0399 93.5494 30.9797C97.2936 34.9194 99.1657 40.382 99.1657 47.3674C99.1657 54.2131 97.1399 59.7036 93.0884 63.8389C89.0648 67.9463 83.6442 70 76.8265 70ZM77.2875 32.8238C73.4874 32.8238 70.4837 34.1511 68.2764 36.8055C66.069 39.4599 64.9653 43.1203 64.9653 47.7865C64.9653 52.2851 66.083 55.8337 68.3183 58.4322C70.5536 61.0028 73.5433 62.2881 77.2875 62.2881C81.1155 62.2881 84.0493 61.0168 86.0891 58.4741C88.1567 55.9315 89.1906 52.313 89.1906 47.6189C89.1906 42.8967 88.1567 39.2504 86.0891 36.6798C84.0493 34.1091 81.1155 32.8238 77.2875 32.8238Z"/>
<path d="M133.827 68.9941V8.89194H151.179C173.336 8.89194 184.415 18.6575 184.415 38.1886C184.415 47.4652 181.342 54.9256 175.194 60.5697C169.047 66.186 160.805 68.9941 150.466 68.9941H133.827ZM143.76 17.3582V60.5697H151.724C158.737 60.5697 164.186 58.6418 168.069 54.7859C171.981 50.9299 173.937 45.4813 173.937 38.4401C173.937 24.3855 166.658 17.3582 152.101 17.3582H143.76Z"/>
<path d="M213.377 70C206.754 70 201.46 68.0022 197.492 64.0065C193.552 59.983 191.582 54.6601 191.582 48.038C191.582 40.8291 193.636 35.1989 197.743 31.1473C201.879 27.0958 207.439 25.0701 214.424 25.0701C221.13 25.0701 226.355 27.0399 230.1 30.9797C233.844 34.9194 235.716 40.382 235.716 47.3674C235.716 54.2131 233.69 59.7036 229.639 63.8389C225.615 67.9463 220.194 70 213.377 70ZM213.838 32.8238C210.038 32.8238 207.034 34.1511 204.826 36.8055C202.619 39.4599 201.515 43.1203 201.515 47.7865C201.515 52.2851 202.633 55.8337 204.868 58.4322C207.104 61.0028 210.093 62.2881 213.838 62.2881C217.666 62.2881 220.599 61.0168 222.639 58.4741C224.707 55.9315 225.741 52.313 225.741 47.6189C225.741 42.8967 224.707 39.2504 222.639 36.6798C220.599 34.1091 217.666 32.8238 213.838 32.8238Z"/>
<path d="M303.656 68.9941H270.377V8.89194H280.352V60.5697H303.656V68.9941Z"/>
<path d="M316.187 17.0648C314.595 17.0648 313.225 16.5479 312.08 15.5141C310.962 14.4802 310.403 13.167 310.403 11.5743C310.403 9.98166 310.962 8.65444 312.08 7.59267C313.225 6.53089 314.595 6 316.187 6C317.836 6 319.233 6.53089 320.379 7.59267C321.524 8.65444 322.097 9.98166 322.097 11.5743C322.097 13.0832 321.524 14.3824 320.379 15.4722C319.233 16.5339 317.836 17.0648 316.187 17.0648ZM321.007 68.9941H311.284V26.076H321.007V68.9941Z"/>
<path d="M331.066 67.6529V58.6418C334.699 61.408 338.708 62.7911 343.095 62.7911C348.963 62.7911 351.897 61.0587 351.897 57.594C351.897 56.616 351.645 55.7917 351.142 55.1212C350.639 54.4226 349.955 53.8079 349.088 53.277C348.25 52.7461 347.244 52.2711 346.071 51.852C344.925 51.4329 343.64 50.9579 342.215 50.427C340.454 49.7284 338.862 48.988 337.437 48.2056C336.04 47.4233 334.866 46.5431 333.916 45.5652C332.994 44.5593 332.296 43.4276 331.821 42.1703C331.346 40.9129 331.108 39.446 331.108 37.7695C331.108 35.7018 331.597 33.8856 332.575 32.3209C333.553 30.7282 334.866 29.401 336.515 28.3392C338.163 27.2495 340.035 26.4392 342.131 25.9083C344.227 25.3495 346.392 25.0701 348.627 25.0701C352.595 25.0701 356.144 25.6708 359.273 26.8723V35.3805C356.255 33.3128 352.791 32.279 348.879 32.279C347.649 32.279 346.532 32.4047 345.526 32.6562C344.548 32.9077 343.71 33.2569 343.011 33.704C342.313 34.1511 341.768 34.6959 341.377 35.3386C340.985 35.9533 340.79 36.6379 340.79 37.3923C340.79 38.3143 340.985 39.0967 341.377 39.7394C341.768 40.382 342.341 40.9548 343.095 41.4578C343.877 41.9328 344.799 42.3798 345.861 42.799C346.951 43.1901 348.194 43.6232 349.591 44.0982C351.435 44.8527 353.084 45.621 354.537 46.4034C356.018 47.1858 357.275 48.0799 358.309 49.0858C359.343 50.0637 360.139 51.2093 360.698 52.5226C361.257 53.8079 361.536 55.3447 361.536 57.1329C361.536 59.3124 361.033 61.2124 360.027 62.833C359.022 64.4536 357.68 65.7948 356.004 66.8566C354.327 67.9184 352.385 68.7007 350.178 69.2037C347.999 69.7346 345.694 70 343.263 70C338.568 70 334.503 69.2176 331.066 67.6529Z"/>
<path d="M393.432 68.5331C391.532 69.4831 389.031 69.9581 385.929 69.9581C377.603 69.9581 373.439 65.9625 373.439 57.9712V33.704H366.272V26.076H373.439V16.1428L383.163 13.3766V26.076H393.432V33.704H383.163V55.1631C383.163 57.7057 383.624 59.5219 384.546 60.6117C385.468 61.7014 387.005 62.2462 389.157 62.2462C390.805 62.2462 392.23 61.7712 393.432 60.8212V68.5331Z"/>
</mask>
<path d="M58.4689 17.3582H41.201V68.9941H31.2259V17.3582H14V8.89194H58.4689V17.3582Z" fill="url(#paint0_linear_702_3)"/>
<path d="M76.8265 70C70.2043 70 64.9094 68.0022 60.9417 64.0065C57.002 59.983 55.0321 54.6601 55.0321 48.038C55.0321 40.8291 57.0858 35.1989 61.1932 31.1473C65.3285 27.0958 70.8889 25.0701 77.8743 25.0701C84.5802 25.0701 89.8053 27.0399 93.5494 30.9797C97.2936 34.9194 99.1657 40.382 99.1657 47.3674C99.1657 54.2131 97.1399 59.7036 93.0884 63.8389C89.0648 67.9463 83.6442 70 76.8265 70ZM77.2875 32.8238C73.4874 32.8238 70.4837 34.1511 68.2764 36.8055C66.069 39.4599 64.9653 43.1203 64.9653 47.7865C64.9653 52.2851 66.083 55.8337 68.3183 58.4322C70.5536 61.0028 73.5433 62.2881 77.2875 62.2881C81.1155 62.2881 84.0493 61.0168 86.0891 58.4741C88.1567 55.9315 89.1906 52.313 89.1906 47.6189C89.1906 42.8967 88.1567 39.2504 86.0891 36.6798C84.0493 34.1091 81.1155 32.8238 77.2875 32.8238Z" fill="url(#paint1_linear_702_3)"/>
<path d="M133.827 68.9941V8.89194H151.179C173.336 8.89194 184.415 18.6575 184.415 38.1886C184.415 47.4652 181.342 54.9256 175.194 60.5697C169.047 66.186 160.805 68.9941 150.466 68.9941H133.827ZM143.76 17.3582V60.5697H151.724C158.737 60.5697 164.186 58.6418 168.069 54.7859C171.981 50.9299 173.937 45.4813 173.937 38.4401C173.937 24.3855 166.658 17.3582 152.101 17.3582H143.76Z" fill="url(#paint2_linear_702_3)"/>
<path d="M213.377 70C206.754 70 201.46 68.0022 197.492 64.0065C193.552 59.983 191.582 54.6601 191.582 48.038C191.582 40.8291 193.636 35.1989 197.743 31.1473C201.879 27.0958 207.439 25.0701 214.424 25.0701C221.13 25.0701 226.355 27.0399 230.1 30.9797C233.844 34.9194 235.716 40.382 235.716 47.3674C235.716 54.2131 233.69 59.7036 229.639 63.8389C225.615 67.9463 220.194 70 213.377 70ZM213.838 32.8238C210.038 32.8238 207.034 34.1511 204.826 36.8055C202.619 39.4599 201.515 43.1203 201.515 47.7865C201.515 52.2851 202.633 55.8337 204.868 58.4322C207.104 61.0028 210.093 62.2881 213.838 62.2881C217.666 62.2881 220.599 61.0168 222.639 58.4741C224.707 55.9315 225.741 52.313 225.741 47.6189C225.741 42.8967 224.707 39.2504 222.639 36.6798C220.599 34.1091 217.666 32.8238 213.838 32.8238Z" fill="url(#paint3_linear_702_3)"/>
<path d="M303.656 68.9941H270.377V8.89194H280.352V60.5697H303.656V68.9941Z" fill="url(#paint4_linear_702_3)"/>
<path d="M316.187 17.0648C314.595 17.0648 313.225 16.5479 312.08 15.5141C310.962 14.4802 310.403 13.167 310.403 11.5743C310.403 9.98166 310.962 8.65444 312.08 7.59267C313.225 6.53089 314.595 6 316.187 6C317.836 6 319.233 6.53089 320.379 7.59267C321.524 8.65444 322.097 9.98166 322.097 11.5743C322.097 13.0832 321.524 14.3824 320.379 15.4722C319.233 16.5339 317.836 17.0648 316.187 17.0648ZM321.007 68.9941H311.284V26.076H321.007V68.9941Z" fill="url(#paint5_linear_702_3)"/>
<path d="M331.066 67.6529V58.6418C334.699 61.408 338.708 62.7911 343.095 62.7911C348.963 62.7911 351.897 61.0587 351.897 57.594C351.897 56.616 351.645 55.7917 351.142 55.1212C350.639 54.4226 349.955 53.8079 349.088 53.277C348.25 52.7461 347.244 52.2711 346.071 51.852C344.925 51.4329 343.64 50.9579 342.215 50.427C340.454 49.7284 338.862 48.988 337.437 48.2056C336.04 47.4233 334.866 46.5431 333.916 45.5652C332.994 44.5593 332.296 43.4276 331.821 42.1703C331.346 40.9129 331.108 39.446 331.108 37.7695C331.108 35.7018 331.597 33.8856 332.575 32.3209C333.553 30.7282 334.866 29.401 336.515 28.3392C338.163 27.2495 340.035 26.4392 342.131 25.9083C344.227 25.3495 346.392 25.0701 348.627 25.0701C352.595 25.0701 356.144 25.6708 359.273 26.8723V35.3805C356.255 33.3128 352.791 32.279 348.879 32.279C347.649 32.279 346.532 32.4047 345.526 32.6562C344.548 32.9077 343.71 33.2569 343.011 33.704C342.313 34.1511 341.768 34.6959 341.377 35.3386C340.985 35.9533 340.79 36.6379 340.79 37.3923C340.79 38.3143 340.985 39.0967 341.377 39.7394C341.768 40.382 342.341 40.9548 343.095 41.4578C343.877 41.9328 344.799 42.3798 345.861 42.799C346.951 43.1901 348.194 43.6232 349.591 44.0982C351.435 44.8527 353.084 45.621 354.537 46.4034C356.018 47.1858 357.275 48.0799 358.309 49.0858C359.343 50.0637 360.139 51.2093 360.698 52.5226C361.257 53.8079 361.536 55.3447 361.536 57.1329C361.536 59.3124 361.033 61.2124 360.027 62.833C359.022 64.4536 357.68 65.7948 356.004 66.8566C354.327 67.9184 352.385 68.7007 350.178 69.2037C347.999 69.7346 345.694 70 343.263 70C338.568 70 334.503 69.2176 331.066 67.6529Z" fill="url(#paint6_linear_702_3)"/>
<path d="M393.432 68.5331C391.532 69.4831 389.031 69.9581 385.929 69.9581C377.603 69.9581 373.439 65.9625 373.439 57.9712V33.704H366.272V26.076H373.439V16.1428L383.163 13.3766V26.076H393.432V33.704H383.163V55.1631C383.163 57.7057 383.624 59.5219 384.546 60.6117C385.468 61.7014 387.005 62.2462 389.157 62.2462C390.805 62.2462 392.23 61.7712 393.432 60.8212V68.5331Z" fill="url(#paint7_linear_702_3)"/>
<path d="M58.4689 17.3582H41.201V68.9941H31.2259V17.3582H14V8.89194H58.4689V17.3582Z" stroke="white" stroke-width="12" mask="url(#path-1-outside-1_702_3)"/>
<path d="M76.8265 70C70.2043 70 64.9094 68.0022 60.9417 64.0065C57.002 59.983 55.0321 54.6601 55.0321 48.038C55.0321 40.8291 57.0858 35.1989 61.1932 31.1473C65.3285 27.0958 70.8889 25.0701 77.8743 25.0701C84.5802 25.0701 89.8053 27.0399 93.5494 30.9797C97.2936 34.9194 99.1657 40.382 99.1657 47.3674C99.1657 54.2131 97.1399 59.7036 93.0884 63.8389C89.0648 67.9463 83.6442 70 76.8265 70ZM77.2875 32.8238C73.4874 32.8238 70.4837 34.1511 68.2764 36.8055C66.069 39.4599 64.9653 43.1203 64.9653 47.7865C64.9653 52.2851 66.083 55.8337 68.3183 58.4322C70.5536 61.0028 73.5433 62.2881 77.2875 62.2881C81.1155 62.2881 84.0493 61.0168 86.0891 58.4741C88.1567 55.9315 89.1906 52.313 89.1906 47.6189C89.1906 42.8967 88.1567 39.2504 86.0891 36.6798C84.0493 34.1091 81.1155 32.8238 77.2875 32.8238Z" stroke="white" stroke-width="12" mask="url(#path-1-outside-1_702_3)"/>
<path d="M133.827 68.9941V8.89194H151.179C173.336 8.89194 184.415 18.6575 184.415 38.1886C184.415 47.4652 181.342 54.9256 175.194 60.5697C169.047 66.186 160.805 68.9941 150.466 68.9941H133.827ZM143.76 17.3582V60.5697H151.724C158.737 60.5697 164.186 58.6418 168.069 54.7859C171.981 50.9299 173.937 45.4813 173.937 38.4401C173.937 24.3855 166.658 17.3582 152.101 17.3582H143.76Z" stroke="white" stroke-width="12" mask="url(#path-1-outside-1_702_3)"/>
<path d="M213.377 70C206.754 70 201.46 68.0022 197.492 64.0065C193.552 59.983 191.582 54.6601 191.582 48.038C191.582 40.8291 193.636 35.1989 197.743 31.1473C201.879 27.0958 207.439 25.0701 214.424 25.0701C221.13 25.0701 226.355 27.0399 230.1 30.9797C233.844 34.9194 235.716 40.382 235.716 47.3674C235.716 54.2131 233.69 59.7036 229.639 63.8389C225.615 67.9463 220.194 70 213.377 70ZM213.838 32.8238C210.038 32.8238 207.034 34.1511 204.826 36.8055C202.619 39.4599 201.515 43.1203 201.515 47.7865C201.515 52.2851 202.633 55.8337 204.868 58.4322C207.104 61.0028 210.093 62.2881 213.838 62.2881C217.666 62.2881 220.599 61.0168 222.639 58.4741C224.707 55.9315 225.741 52.313 225.741 47.6189C225.741 42.8967 224.707 39.2504 222.639 36.6798C220.599 34.1091 217.666 32.8238 213.838 32.8238Z" stroke="white" stroke-width="12" mask="url(#path-1-outside-1_702_3)"/>
<path d="M303.656 68.9941H270.377V8.89194H280.352V60.5697H303.656V68.9941Z" stroke="white" stroke-width="12" mask="url(#path-1-outside-1_702_3)"/>
<path d="M316.187 17.0648C314.595 17.0648 313.225 16.5479 312.08 15.5141C310.962 14.4802 310.403 13.167 310.403 11.5743C310.403 9.98166 310.962 8.65444 312.08 7.59267C313.225 6.53089 314.595 6 316.187 6C317.836 6 319.233 6.53089 320.379 7.59267C321.524 8.65444 322.097 9.98166 322.097 11.5743C322.097 13.0832 321.524 14.3824 320.379 15.4722C319.233 16.5339 317.836 17.0648 316.187 17.0648ZM321.007 68.9941H311.284V26.076H321.007V68.9941Z" stroke="white" stroke-width="12" mask="url(#path-1-outside-1_702_3)"/>
<path d="M331.066 67.6529V58.6418C334.699 61.408 338.708 62.7911 343.095 62.7911C348.963 62.7911 351.897 61.0587 351.897 57.594C351.897 56.616 351.645 55.7917 351.142 55.1212C350.639 54.4226 349.955 53.8079 349.088 53.277C348.25 52.7461 347.244 52.2711 346.071 51.852C344.925 51.4329 343.64 50.9579 342.215 50.427C340.454 49.7284 338.862 48.988 337.437 48.2056C336.04 47.4233 334.866 46.5431 333.916 45.5652C332.994 44.5593 332.296 43.4276 331.821 42.1703C331.346 40.9129 331.108 39.446 331.108 37.7695C331.108 35.7018 331.597 33.8856 332.575 32.3209C333.553 30.7282 334.866 29.401 336.515 28.3392C338.163 27.2495 340.035 26.4392 342.131 25.9083C344.227 25.3495 346.392 25.0701 348.627 25.0701C352.595 25.0701 356.144 25.6708 359.273 26.8723V35.3805C356.255 33.3128 352.791 32.279 348.879 32.279C347.649 32.279 346.532 32.4047 345.526 32.6562C344.548 32.9077 343.71 33.2569 343.011 33.704C342.313 34.1511 341.768 34.6959 341.377 35.3386C340.985 35.9533 340.79 36.6379 340.79 37.3923C340.79 38.3143 340.985 39.0967 341.377 39.7394C341.768 40.382 342.341 40.9548 343.095 41.4578C343.877 41.9328 344.799 42.3798 345.861 42.799C346.951 43.1901 348.194 43.6232 349.591 44.0982C351.435 44.8527 353.084 45.621 354.537 46.4034C356.018 47.1858 357.275 48.0799 358.309 49.0858C359.343 50.0637 360.139 51.2093 360.698 52.5226C361.257 53.8079 361.536 55.3447 361.536 57.1329C361.536 59.3124 361.033 61.2124 360.027 62.833C359.022 64.4536 357.68 65.7948 356.004 66.8566C354.327 67.9184 352.385 68.7007 350.178 69.2037C347.999 69.7346 345.694 70 343.263 70C338.568 70 334.503 69.2176 331.066 67.6529Z" stroke="white" stroke-width="12" mask="url(#path-1-outside-1_702_3)"/>
<path d="M393.432 68.5331C391.532 69.4831 389.031 69.9581 385.929 69.9581C377.603 69.9581 373.439 65.9625 373.439 57.9712V33.704H366.272V26.076H373.439V16.1428L383.163 13.3766V26.076H393.432V33.704H383.163V55.1631C383.163 57.7057 383.624 59.5219 384.546 60.6117C385.468 61.7014 387.005 62.2462 389.157 62.2462C390.805 62.2462 392.23 61.7712 393.432 60.8212V68.5331Z" stroke="white" stroke-width="12" mask="url(#path-1-outside-1_702_3)"/>
</g>
<defs>
<filter id="filter0_d_702_3" x="0" y="0" width="407.432" height="92" filterUnits="userSpaceOnUse" color-interpolation-filters="sRGB">
<feFlood flood-opacity="0" result="BackgroundImageFix"/>
<feColorMatrix in="SourceAlpha" type="matrix" values="0 0 0 0 0 0 0 0 0 0 0 0 0 0 0 0 0 0 127 0" result="hardAlpha"/>
<feOffset dy="8"/>
<feGaussianBlur stdDeviation="4"/>
<feComposite in2="hardAlpha" operator="out"/>
<feColorMatrix type="matrix" values="0 0 0 0 0 0 0 0 0 0 0 0 0 0 0 0 0 0 0.16 0"/>
<feBlend mode="normal" in2="BackgroundImageFix" result="effect1_dropShadow_702_3"/>
<feBlend mode="normal" in="SourceGraphic" in2="effect1_dropShadow_702_3" result="shape"/>
</filter>
<linearGradient id="paint0_linear_702_3" x1="119.884" y1="12.4545" x2="125.685" y2="72.0225" gradientUnits="userSpaceOnUse">
<stop stop-color="#006880"/>
<stop offset="1" stop-color="#005366"/>
</linearGradient>
<linearGradient id="paint1_linear_702_3" x1="119.884" y1="12.4545" x2="125.685" y2="72.0225" gradientUnits="userSpaceOnUse">
<stop stop-color="#006880"/>
<stop offset="1" stop-color="#005366"/>
</linearGradient>
<linearGradient id="paint2_linear_702_3" x1="119.884" y1="12.4545" x2="125.685" y2="72.0225" gradientUnits="userSpaceOnUse">
<stop stop-color="#006880"/>
<stop offset="1" stop-color="#005366"/>
</linearGradient>
<linearGradient id="paint3_linear_702_3" x1="119.884" y1="12.4545" x2="125.685" y2="72.0225" gradientUnits="userSpaceOnUse">
<stop stop-color="#006880"/>
<stop offset="1" stop-color="#005366"/>
</linearGradient>
<linearGradient id="paint4_linear_702_3" x1="119.884" y1="12.4545" x2="125.685" y2="72.0225" gradientUnits="userSpaceOnUse">
<stop stop-color="#006880"/>
<stop offset="1" stop-color="#005366"/>
</linearGradient>
<linearGradient id="paint5_linear_702_3" x1="119.884" y1="12.4545" x2="125.685" y2="72.0225" gradientUnits="userSpaceOnUse">
<stop stop-color="#006880"/>
<stop offset="1" stop-color="#005366"/>
</linearGradient>
<linearGradient id="paint6_linear_702_3" x1="119.884" y1="12.4545" x2="125.685" y2="72.0225" gradientUnits="userSpaceOnUse">
<stop stop-color="#006880"/>
<stop offset="1" stop-color="#005366"/>
</linearGradient>
<linearGradient id="paint7_linear_702_3" x1="119.884" y1="12.4545" x2="125.685" y2="72.0225" gradientUnits="userSpaceOnUse">
<stop stop-color="#006880"/>
<stop offset="1" stop-color="#005366"/>
</linearGradient>
</defs>
</svg>
